<svg width="76" height="67" viewBox="0 0 76 67" fill="none" xmlns="http://www.w3.org/2000/svg">
<path d="M48.4908 28.8501H54.4504C55.0737 28.8501 55.6714 29.095 56.1121 29.531C56.5528 29.9671 56.8004 30.5584 56.8004 31.1751C56.8004 31.7917 56.5528 32.3831 56.1121 32.8191C55.6714 33.2551 55.0737 33.5001 54.4504 33.5001H21.5504C20.9271 33.5001 20.3294 33.2551 19.8887 32.8191C19.448 32.3831 19.2004 31.7917 19.2004 31.1751C19.2004 30.5584 19.448 29.9671 19.8887 29.531C20.3294 29.095 20.9271 28.8501 21.5504 28.8501H25.1083C24.4432 28.12 24.0289 27.2003 23.9251 26.2228C23.8212 25.2454 24.033 24.2605 24.5302 23.4096L36.2802 3.27507C36.9035 2.20709 37.93 1.4278 39.134 1.10864C40.3381 0.789471 41.6209 0.956567 42.7004 1.57317L54.911 8.54817C55.9905 9.16481 56.7781 10.1805 57.1007 11.3717C57.4233 12.5629 57.2544 13.8321 56.6312 14.9001L48.4908 28.8501ZM52.561 12.5751L40.3504 5.60007L28.6004 25.7346L34.0524 28.8501H43.067L52.561 12.5751ZM56.6124 24.2001L59.3243 19.5501C60.0244 19.5761 60.7097 19.7566 61.3302 20.0784C61.9506 20.4002 62.4906 20.8552 62.9104 21.4101L74.6604 36.9085C75.2706 37.7134 75.6004 38.6924 75.6004 39.6985V61.4001C75.6004 62.6333 75.1052 63.8161 74.2238 64.6881C73.3424 65.5602 72.1469 66.0501 70.9004 66.0501H5.10039C3.85387 66.0501 2.65841 65.5602 1.77699 64.6881C0.895568 63.8161 0.400391 62.6333 0.400391 61.4001V39.6985C0.400391 38.6924 0.730227 37.7134 1.34039 36.9085L13.0904 21.4101C13.5282 20.8326 14.0959 20.3638 14.7485 20.041C15.4011 19.7181 16.1207 19.5501 16.8504 19.5501H21.3765L19.1252 23.4096C18.9783 23.6612 18.8556 23.9258 18.7586 24.2001H16.8504L6.27539 38.1501H69.7254L59.1504 24.2001H56.6124ZM5.10039 61.4001H70.9004V42.8001H5.10039V61.4001Z" fill="#78B548"/>
</svg>
