<svg width="44" height="45" viewBox="0 0 44 45" fill="none" xmlns="http://www.w3.org/2000/svg">
<circle cx="22" cy="22.5" r="21.5" stroke="#78B548"/>
<g clip-path="url(#clip0_2042_31642)">
<path d="M12 30.5C12.2272 30.8165 12.528 31.073 12.8764 31.2472C13.2249 31.4214 13.6105 31.5082 14 31.5C14.3895 31.5082 14.7751 31.4214 15.1236 31.2472C15.472 31.073 15.7728 30.8165 16 30.5C16.2272 30.1835 16.528 29.9271 16.8764 29.7529C17.2249 29.5787 17.6105 29.4919 18 29.5C18.3895 29.4919 18.7751 29.5787 19.1236 29.7529C19.472 29.9271 19.7728 30.1835 20 30.5C20.2272 30.8165 20.528 31.073 20.8764 31.2472C21.2249 31.4214 21.6105 31.5082 22 31.5C22.3895 31.5082 22.7751 31.4214 23.1236 31.2472C23.472 31.073 23.7728 30.8165 24 30.5C24.2272 30.1835 24.528 29.9271 24.8764 29.7529C25.2249 29.5787 25.6105 29.4919 26 29.5C26.3895 29.4919 26.7751 29.5787 27.1236 29.7529C27.472 29.9271 27.7728 30.1835 28 30.5C28.2272 30.8165 28.528 31.073 28.8764 31.2472C29.2249 31.4214 29.6105 31.5082 30 31.5C30.3895 31.5082 30.7751 31.4214 31.1236 31.2472C31.472 31.073 31.7728 30.8165 32 30.5" stroke="#78B548" stroke-width="1.5" stroke-linecap="round" stroke-linejoin="round"/>
<path d="M12 26.5C12.2272 26.8165 12.528 27.073 12.8764 27.2472C13.2249 27.4214 13.6105 27.5082 14 27.5C14.3895 27.5082 14.7751 27.4214 15.1236 27.2472C15.472 27.073 15.7728 26.8165 16 26.5C16.2272 26.1835 16.528 25.9271 16.8764 25.7529C17.2249 25.5787 17.6105 25.4919 18 25.5C18.3895 25.4919 18.7751 25.5787 19.1236 25.7529C19.472 25.9271 19.7728 26.1835 20 26.5C20.2272 26.8165 20.528 27.073 20.8764 27.2472C21.2249 27.4214 21.6105 27.5082 22 27.5C22.3895 27.5082 22.7751 27.4214 23.1236 27.2472C23.472 27.073 23.7728 26.8165 24 26.5C24.2272 26.1835 24.528 25.9271 24.8764 25.7529C25.2249 25.5787 25.6105 25.4919 26 25.5C26.3895 25.4919 26.7751 25.5787 27.1236 25.7529C27.472 25.9271 27.7728 26.1835 28 26.5C28.2272 26.8165 28.528 27.073 28.8764 27.2472C29.2249 27.4214 29.6105 27.5082 30 27.5C30.3895 27.5082 30.7751 27.4214 31.1236 27.2472C31.472 27.073 31.7728 26.8165 32 26.5" stroke="#78B548" stroke-width="1.5" stroke-linecap="round" stroke-linejoin="round"/>
<path d="M25 22.5V15C25 14.6022 25.158 14.2206 25.4393 13.9393C25.7206 13.658 26.1022 13.5 26.5 13.5C26.8978 13.5 27.2794 13.658 27.5607 13.9393C27.842 14.2206 28 14.6022 28 15" stroke="#78B548" stroke-width="1.5" stroke-linecap="round" stroke-linejoin="round"/>
<path d="M19 22.5V15C19 14.6022 18.842 14.2206 18.5607 13.9393C18.2794 13.658 17.8978 13.5 17.5 13.5C17.1022 13.5 16.7206 13.658 16.4393 13.9393C16.158 14.2206 16 14.6022 16 15" stroke="#78B548" stroke-width="1.5" stroke-linecap="round" stroke-linejoin="round"/>
<path d="M25 15.5H19" stroke="#78B548" stroke-width="1.5" stroke-linecap="round" stroke-linejoin="round"/>
<path d="M19 20.5H25" stroke="#78B548" stroke-width="1.5" stroke-linecap="round" stroke-linejoin="round"/>
</g>
<defs>
<clipPath id="clip0_2042_31642">
<rect width="24" height="24" fill="white" transform="translate(10 10.5)"/>
</clipPath>
</defs>
</svg>
