<svg width="44" height="45" viewBox="0 0 44 45" fill="none" xmlns="http://www.w3.org/2000/svg">
<circle cx="22" cy="22.5" r="21.5" stroke="#78B548"/>
<g clip-path="url(#clip0_2042_31641)">
<path fill-rule="evenodd" clip-rule="evenodd" d="M20.5858 13.0858C20.9609 12.7107 21.4696 12.5 22 12.5C22.5304 12.5 23.0391 12.7107 23.4142 13.0858C23.7893 13.4609 24 13.9696 24 14.5C24 15.0304 23.7893 15.5391 23.4142 15.9142C23.0391 16.2893 22.5304 16.5 22 16.5C21.4696 16.5 20.9609 16.2893 20.5858 15.9142C20.2107 15.5391 20 15.0304 20 14.5C20 13.9696 20.2107 13.4609 20.5858 13.0858ZM19.1972 26.1056C19.6912 26.3526 19.8914 26.9532 19.6444 27.4472L18.8944 28.9472C18.6927 29.3506 18.2461 29.569 17.8039 29.4806L12.8039 28.4806C12.2623 28.3723 11.9111 27.8454 12.0194 27.3039C12.1277 26.7623 12.6546 26.4111 13.1961 26.5194L17.4471 27.3696L17.8556 26.5528C18.1026 26.0588 18.7032 25.8586 19.1972 26.1056ZM19.0136 24.3356L19.7754 19.7647L17 20.3198V22.5C17 23.0523 16.5523 23.5 16 23.5C15.4477 23.5 15 23.0523 15 22.5V19.5C15 19.0233 15.3365 18.6129 15.8039 18.5194L20.7813 17.5239C20.8957 17.4983 21.0164 17.4924 21.1389 17.5097C21.1474 17.5109 21.1559 17.5122 21.1644 17.5136L21.1849 17.5172C21.3943 17.5566 21.5765 17.6588 21.7153 17.8011L24.5402 20.626L27.3162 21.5513C27.8402 21.726 28.1233 22.2923 27.9487 22.8162C27.774 23.3402 27.2077 23.6233 26.6838 23.4487L23.6838 22.4487C23.5365 22.3996 23.4027 22.3169 23.2929 22.2071L21.6669 20.5811L21.0863 24.0648L24.6 26.7C24.8518 26.8889 25 27.1852 25 27.5V31.5C25 32.0523 24.5523 32.5 24 32.5C23.4477 32.5 23 32.0523 23 31.5V28L19.4 25.3C19.1012 25.0759 18.9522 24.704 19.0136 24.3356ZM29.8535 30.3536C29.7598 30.4473 29.6326 30.5 29.5 30.5C29.3674 30.5 29.2402 30.4473 29.1464 30.3536C29.0527 30.2598 29 30.1326 29 30C29 29.8674 29.0527 29.7402 29.1464 29.6464C29.2402 29.5527 29.3674 29.5 29.5 29.5C29.6326 29.5 29.7598 29.5527 29.8535 29.6464C29.9473 29.7402 30 29.8674 30 30C30 30.1326 29.9473 30.2598 29.8535 30.3536Z" fill="#78B548"/>
</g>
<defs>
<clipPath id="clip0_2042_31641">
<rect width="24" height="24" fill="white" transform="translate(10 10.5)"/>
</clipPath>
</defs>
</svg>
