<svg width="38" height="40" viewBox="0 0 38 40" fill="none" xmlns="http://www.w3.org/2000/svg">
<g id="masajes" clip-path="url(#clip0_2024_419)">
<path id="Vector" d="M3.17578 20H4.76368" stroke="#003C3E" stroke-width="2" stroke-linecap="round" stroke-linejoin="round"/>
<path id="Vector_2" d="M9.52739 13.6484H6.3516C5.93046 13.6484 5.52657 13.8157 5.22879 14.1135C4.931 14.4113 4.7637 14.8152 4.7637 15.2363V24.7637C4.7637 25.1848 4.931 25.5887 5.22879 25.8865C5.52657 26.1843 5.93046 26.3516 6.3516 26.3516H9.52739" stroke="#003C3E" stroke-width="2" stroke-linecap="round" stroke-linejoin="round"/>
<path id="Vector_3" d="M9.52737 12.0606V27.9395C9.52737 28.3607 9.69467 28.7645 9.99246 29.0623C10.2902 29.3601 10.6941 29.5274 11.1153 29.5274H12.7032C13.1243 29.5274 13.5282 29.3601 13.826 29.0623C14.1238 28.7645 14.2911 28.3607 14.2911 27.9395V12.0606C14.2911 11.6394 14.1238 11.2355 13.826 10.9377C13.5282 10.64 13.1243 10.4727 12.7032 10.4727H11.1153C10.6941 10.4727 10.2902 10.64 9.99246 10.9377C9.69467 11.2355 9.52737 11.6394 9.52737 12.0606Z" stroke="#003C3E" stroke-width="2" stroke-linecap="round" stroke-linejoin="round"/>
<path id="Vector_4" d="M14.2911 20H23.8184" stroke="#003C3E" stroke-width="2" stroke-linecap="round" stroke-linejoin="round"/>
<path id="Vector_5" d="M23.8184 12.0606V27.9395C23.8184 28.3607 23.9857 28.7645 24.2835 29.0623C24.5813 29.3601 24.9852 29.5274 25.4063 29.5274H26.9942C27.4154 29.5274 27.8193 29.3601 28.117 29.0623C28.4148 28.7645 28.5821 28.3607 28.5821 27.9395V12.0606C28.5821 11.6394 28.4148 11.2355 28.117 10.9377C27.8193 10.64 27.4154 10.4727 26.9942 10.4727H25.4063C24.9852 10.4727 24.5813 10.64 24.2835 10.9377C23.9857 11.2355 23.8184 11.6394 23.8184 12.0606Z" stroke="#003C3E" stroke-width="2" stroke-linecap="round" stroke-linejoin="round"/>
<path id="Vector_6" d="M28.5821 13.6484H31.7579C32.1791 13.6484 32.5829 13.8157 32.8807 14.1135C33.1785 14.4113 33.3458 14.8152 33.3458 15.2363V24.7637C33.3458 25.1848 33.1785 25.5887 32.8807 25.8865C32.5829 26.1843 32.1791 26.3516 31.7579 26.3516H28.5821" stroke="#003C3E" stroke-width="2" stroke-linecap="round" stroke-linejoin="round"/>
<path id="Vector_7" d="M34.9337 20H33.3458" stroke="#003C3E" stroke-width="2" stroke-linecap="round" stroke-linejoin="round"/>
</g>
<defs>
<clipPath id="clip0_2024_419">
<rect width="38" height="38.1095" fill="white" transform="translate(0 0.945312)"/>
</clipPath>
</defs>
</svg>
