<svg width="22" height="23" viewBox="0 0 22 23" fill="none" xmlns="http://www.w3.org/2000/svg">
<path opacity="0.5" d="M10.8828 8.42977C9.28125 8.42977 8.31771 9.70581 8.31771 11.8542C8.31771 13.9766 9.28125 15.2787 10.8698 15.2787C12.5104 15.2787 13.5651 13.9506 13.5651 11.8542C13.5651 9.75789 12.5234 8.42977 10.8828 8.42977ZM11.3385 0.916748C17.4323 0.916748 21.7943 4.77092 21.7943 10.5261C21.7943 14.6798 19.9193 17.4011 16.8203 17.4011C15.2969 17.4011 14.0339 16.5548 13.8255 15.2657H13.6953C13.1484 16.5808 11.9766 17.31 10.4531 17.31C7.74479 17.31 5.92188 15.0964 5.92188 11.7891C5.92188 8.62508 7.75781 6.43758 10.401 6.43758C11.7943 6.43758 13.0313 7.15373 13.526 8.27352H13.6693V6.698H15.8698V14.0938C15.8698 14.9532 16.3255 15.5391 17.263 15.5391C18.7083 15.5391 19.763 13.7423 19.763 10.5912C19.763 5.85164 16.2865 2.71362 11.1953 2.71362C6.14323 2.71362 2.52344 6.48967 2.52344 11.8542C2.52344 17.5964 6.35156 20.8256 11.638 20.8256C13.2526 20.8256 14.9063 20.6042 15.7135 20.2657V22.0626C14.6068 22.4272 13.1354 22.6355 11.5469 22.6355C5.11458 22.6355 0.492188 18.6772 0.492188 11.7761C0.492188 5.29175 4.94531 0.916748 11.3385 0.916748Z" fill="#003C3E"/>
</svg>
