<svg width="55" height="70" viewBox="0 0 55 70" fill="none" xmlns="http://www.w3.org/2000/svg">
<path d="M35.0459 1.79834V16.4854C35.0459 17.4592 35.4327 18.3932 36.1213 19.0818C36.8099 19.7704 37.7439 20.1572 38.7177 20.1572H53.4048" stroke="#78B548" stroke-width="3" stroke-linecap="round" stroke-linejoin="round"/>
<path d="M46.0613 67.8902H9.34354C7.39592 67.8902 5.52806 67.1165 4.15087 65.7394C2.77369 64.3622 2 62.4943 2 60.5467V9.14188C2 7.19426 2.77369 5.3264 4.15087 3.94921C5.52806 2.57203 7.39592 1.79834 9.34354 1.79834H35.0459L53.4048 20.1572V60.5467C53.4048 62.4943 52.6311 64.3622 51.2539 65.7394C49.8768 67.1165 48.0089 67.8902 46.0613 67.8902Z" stroke="#78B548" stroke-width="3" stroke-linecap="round" stroke-linejoin="round"/>
</svg>
