<svg width="63" height="66" viewBox="0 0 63 66" fill="none" xmlns="http://www.w3.org/2000/svg">
<path fill-rule="evenodd" clip-rule="evenodd" d="M21.1344 44.8653C22.2731 46.0041 22.2731 47.8504 21.1344 48.9892L6.18549 63.938C5.04673 65.0768 3.20043 65.0768 2.06166 63.938C0.9229 62.7993 0.922901 60.953 2.06167 59.8142L17.0105 44.8653C18.1493 43.7266 19.9956 43.7266 21.1344 44.8653Z" fill="#78B548"/>
<path d="M35.5 54C20.3367 54 8 41.8876 8 27C8 12.1124 20.3367 0 35.5 0C50.6633 0 63 12.1124 63 27C63 41.8876 50.6633 54 35.5 54ZM35.5 4.15385C22.6755 4.15385 12.2308 14.4087 12.2308 27C12.2308 39.5913 22.6755 49.8462 35.5 49.8462C48.3245 49.8462 58.7692 39.5978 58.7692 27C58.7692 14.4022 48.3311 4.15385 35.5 4.15385Z" fill="#78B548"/>
<path d="M37.5226 22.5289L37.5226 22.5289L37.522 22.5208C37.3661 20.2143 38.0422 18.1802 39.3301 16.737C40.618 15.2938 42.4229 14.5 44.5009 14.5C46.5517 14.5 48.3668 15.308 49.6553 16.7532C50.9437 18.1983 51.6336 20.2492 51.4785 22.5224L51.4785 22.5224L51.478 22.5297C51.3432 24.6577 50.5212 26.663 49.1624 28.2165C47.7989 29.7409 46.1369 30.5 44.5009 30.5C42.8629 30.5 41.1997 29.7403 39.8378 28.2162C38.477 26.6639 37.6548 24.6577 37.5226 22.5289Z" stroke="#78B548" stroke-width="3"/>
<path d="M17.5202 23.0262L17.5202 23.0261C17.3757 20.8736 18.0097 18.9654 19.2208 17.5994C20.431 16.2343 22.0947 15.5 23.9999 15.5C25.8934 15.5 27.5592 16.2532 28.7671 17.6185C29.9752 18.984 30.6257 20.911 30.4798 23.0324L30.4798 23.0331C30.1828 27.3802 27.0493 30.5 24.0013 30.5C20.9463 30.5 17.8122 27.3788 17.5202 23.0262Z" stroke="#78B548" stroke-width="3"/>
<path d="M55.2589 38.7596C52.4455 43.1663 48.2874 46.4904 43.4361 48.2061C38.5915 49.9194 33.3393 49.929 28.5007 48.2479C28.5027 48.1096 28.5115 47.9483 28.53 47.7635C28.5838 47.225 28.6992 46.6695 28.7981 46.2652L28.7985 46.2638C29.615 42.9116 31.6334 40.1274 34.684 38.1979L55.2589 38.7596ZM55.2589 38.7596C55.0975 38.5829 54.8591 38.378 54.5056 38.1558C51.7643 36.4367 48.3464 35.5 44.5959 35.5C40.9269 35.5 37.4071 36.476 34.6842 38.1978L55.2589 38.7596Z" stroke="#78B548" stroke-width="3"/>
<mask id="path-6-inside-1_1035_7192" fill="white">
<path d="M24.096 45.2648C24.9588 41.4375 26.7955 38.2465 29.645 35.666C29.7797 35.5424 29.8821 35.381 29.9416 35.1984C30.0011 35.0159 30.0155 34.8189 29.9832 34.6281C29.9509 34.4373 29.8732 34.2596 29.7581 34.1136C29.643 33.9675 29.4948 33.8585 29.3289 33.7978C27.8645 33.2781 26.1926 33 24.1192 33C21.2123 33 18.126 33.8751 15.8037 35.4652C15.1447 35.917 14.4979 36.0906 14 36.2453C15.999 41.1572 19.3142 45.2626 23.492 48L23.7104 47.981C23.7582 47.0637 23.8873 46.1539 24.096 45.2648Z"/>
</mask>
<path d="M24.096 45.2648L27.0166 45.9504L27.0197 45.9375L27.0226 45.9246L24.096 45.2648ZM29.645 35.666L31.6588 37.8897L31.6658 37.8833L31.6728 37.8769L29.645 35.666ZM29.3289 33.7978L30.3598 30.9804L30.346 30.9754L30.3321 30.9705L29.3289 33.7978ZM15.8037 35.4652L14.1088 32.9898L14.1073 32.9908L15.8037 35.4652ZM14 36.2453L13.11 33.3803L9.98959 34.3497L11.2213 37.3762L14 36.2453ZM23.492 48L21.8478 50.5093L22.7168 51.0787L23.7518 50.9887L23.492 48ZM23.7104 47.981L23.9702 50.9697L26.5706 50.7437L26.7063 48.137L23.7104 47.981ZM27.0226 45.9246C27.7538 42.681 29.2816 40.0424 31.6588 37.8897L27.6313 33.4423C24.3093 36.4506 22.1639 40.194 21.1695 44.6051L27.0226 45.9246ZM31.6728 37.8769C32.2075 37.3864 32.5829 36.7757 32.794 36.1278L27.0892 34.269C27.1814 33.9862 27.3519 33.6984 27.6172 33.4551L31.6728 37.8769ZM32.794 36.1278C33.005 35.4804 33.0537 34.7927 32.9411 34.1277L27.0252 35.1285C26.9773 34.8452 26.9972 34.5513 27.0892 34.269L32.794 36.1278ZM32.9411 34.1277C32.8286 33.4625 32.5534 32.8139 32.1145 32.2569L27.4017 35.9702C27.1929 35.7053 27.0732 35.4121 27.0252 35.1285L32.9411 34.1277ZM32.1145 32.2569C31.6741 31.698 31.0761 31.2425 30.3598 30.9804L28.2981 36.6151C27.9136 36.4744 27.6119 36.2371 27.4017 35.9702L32.1145 32.2569ZM30.3321 30.9705C28.4893 30.3166 26.4691 30 24.1192 30V36C25.9161 36 27.2397 36.2397 28.3257 36.625L30.3321 30.9705ZM24.1192 30C20.6726 30 16.9815 31.0229 14.1088 32.9898L17.4986 37.9405C19.2705 36.7273 21.752 36 24.1192 36V30ZM14.1073 32.9908C13.8919 33.1385 13.7111 33.1936 13.11 33.3803L14.89 39.1103C15.2847 38.9876 16.3975 38.6954 17.5 37.9395L14.1073 32.9908ZM11.2213 37.3762C13.4349 42.8153 17.1285 47.4171 21.8478 50.5093L25.1361 45.4907C21.4998 43.1081 18.5632 39.4991 16.7787 35.1144L11.2213 37.3762ZM23.7518 50.9887L23.9702 50.9697L23.4506 44.9923L23.2321 45.0113L23.7518 50.9887ZM26.7063 48.137C26.7449 47.3971 26.849 46.6645 27.0166 45.9504L21.1754 44.5793C20.9257 45.6433 20.7715 46.7303 20.7145 47.825L26.7063 48.137Z" fill="#78B548" mask="url(#path-6-inside-1_1035_7192)"/>
</svg>
