<svg width="20" height="18" viewBox="0 0 20 18" fill="none" xmlns="http://www.w3.org/2000/svg">
<path d="M10.9347 0.71121L10.9345 0.711341L13.221 5.37033L18.3359 6.11797C18.3359 6.11797 18.3359 6.11797 18.3359 6.11798C18.4715 6.13774 18.6018 6.18404 18.7194 6.25422C18.837 6.32442 18.9397 6.41713 19.0214 6.52705C19.1032 6.63696 19.1625 6.76193 19.1959 6.89479C19.2293 7.02765 19.2361 7.16579 19.2161 7.3013M10.9347 0.71121L18.3178 6.24166C18.4371 6.25905 18.5518 6.29979 18.6553 6.36157C18.7589 6.42334 18.8492 6.50492 18.9211 6.60165C18.9931 6.69838 19.0452 6.80835 19.0746 6.92526C19.104 7.04218 19.1101 7.16374 19.0924 7.283C19.0633 7.48036 18.9706 7.66284 18.8284 7.80275L15.0756 11.4822M10.9347 0.71121L10.9304 0.703734C10.8358 0.540553 10.7 0.40511 10.5366 0.310988C10.3731 0.216866 10.1878 0.167376 9.99921 0.167481C9.8106 0.167586 9.62534 0.217283 9.462 0.311587C9.29867 0.405891 9.163 0.541486 9.06861 0.704771L9.06836 0.704627L9.06461 0.712267L6.77903 5.37033L1.6642 6.11796C1.47206 6.14587 1.29154 6.22693 1.14302 6.35198C0.994495 6.47703 0.88388 6.64111 0.823653 6.82569C0.763426 7.01027 0.755985 7.20801 0.80217 7.39659C0.848349 7.58516 0.946305 7.75706 1.08499 7.89292L1.17249 7.80367L1.08503 7.89296L4.7902 11.5257M10.9347 0.71121L4.7902 11.5257M19.2161 7.3013L19.093 7.28309L19.2161 7.30123C19.2161 7.30125 19.2161 7.30128 19.2161 7.3013ZM19.2161 7.3013C19.183 7.52555 19.0777 7.73289 18.9161 7.89185L18.9159 7.892L15.2098 11.5257M15.2098 11.5257L15.1988 11.4612L15.0756 11.4822M15.2098 11.5257L15.1631 11.5715L15.0756 11.4822M15.2098 11.5257L16.0843 16.6542L16.0843 16.6544C16.1167 16.8461 16.0947 17.0429 16.0209 17.2228C15.9472 17.4026 15.8246 17.5582 15.667 17.672C15.5094 17.7858 15.3232 17.8533 15.1292 17.8667C14.9354 17.8802 14.7416 17.8391 14.5698 17.7482M15.0756 11.4822L15.9611 16.6752C15.9895 16.8438 15.9702 17.0171 15.9053 17.1753C15.8404 17.3336 15.7325 17.4705 15.5938 17.5707C15.4552 17.6708 15.2912 17.7302 15.1206 17.742C14.95 17.7538 14.7794 17.7177 14.6282 17.6377M14.6282 17.6377L14.5698 17.7482M14.6282 17.6377L14.5698 17.7481M14.6282 17.6377L10 15.1911M14.5698 17.7482L14.5698 17.7481M14.5698 17.7482L14.5698 17.7481M14.5698 17.7481L5.37083 17.6386L10 15.1911M14.5698 17.7481L10 15.3325M14.5698 17.7481L4.7902 11.5257M10 15.1911L9.94158 15.3016L10 15.3325M10 15.1911L10.0584 15.3016L10 15.3325M10 15.3325L5.42926 17.7491L5.42878 17.7493C5.25683 17.8393 5.06319 17.8795 4.86962 17.8655C4.67606 17.8515 4.49024 17.7838 4.33304 17.67C4.17585 17.5562 4.0535 17.4008 3.97976 17.2213C3.90602 17.0417 3.8838 16.8452 3.9156 16.6538L3.91569 16.6532L4.7902 11.5257M4.7902 11.5257L4.8369 11.5715L4.92441 11.4822L4.80119 11.4612L4.7902 11.5257ZM17.9192 7.23552L14.175 10.9062C14.175 10.9062 14.175 10.9062 14.175 10.9062C14.1077 10.9721 14.0574 11.0534 14.0284 11.143C13.9993 11.2326 13.9924 11.3279 14.0082 11.4207L14.0082 11.4208L14.8914 16.5983L10.272 14.1566L10.2718 14.1565C10.188 14.1123 10.0947 14.0893 10 14.0893C9.90527 14.0893 9.81198 14.1123 9.72816 14.1565L9.72798 14.1566L5.10863 16.5991L5.9918 11.4208L5.99181 11.4207C6.00761 11.3279 6.00068 11.2326 5.97163 11.143C5.94258 11.0534 5.89228 10.9722 5.82502 10.9062C5.825 10.9062 5.82499 10.9062 5.82498 10.9062L2.08166 7.23548L7.25153 6.47994L17.9192 7.23552ZM7.69136 6.15911L9.99997 1.45535L12.3077 6.16006C12.3078 6.16008 12.3078 6.16011 12.3078 6.16013C12.3496 6.24546 12.4116 6.31929 12.4884 6.37519C12.5652 6.43106 12.6545 6.46734 12.7485 6.48087L12.7484 6.48085L12.7665 6.35716L12.7487 6.48089L7.69136 6.15911Z" fill="#003C3E" stroke="#003C3E" stroke-width="0.25"/>
</svg>
