<svg width="44" height="44" viewBox="0 0 44 44" fill="none" xmlns="http://www.w3.org/2000/svg">
<circle cx="22" cy="22" r="21.5" stroke="#78B548"/>
<g clip-path="url(#clip0_2042_31715)">
<path fill-rule="evenodd" clip-rule="evenodd" d="M20.0466 12.1926C21.9866 11.8062 23.9976 12.0039 25.8253 12.7606C27.6529 13.5173 29.2151 14.799 30.3142 16.4436C31.4133 18.0882 32 20.0219 32 22C32 22.5523 31.5523 23 31 23C30.4477 23 30 22.5523 30 22C30 20.4175 29.5307 18.8706 28.6514 17.5549C27.7721 16.2392 26.5224 15.2138 25.0602 14.6085C23.5981 14.0031 21.9893 13.845 20.4373 14.1541C18.8853 14.4632 17.4599 15.2257 16.3413 16.345C15.2227 17.4644 14.4612 18.8904 14.1531 20.4426C13.845 21.9948 14.0042 23.6035 14.6105 25.0652C15.2168 26.5269 16.243 27.7759 17.5593 28.6544C18.8756 29.5328 20.4229 30.0011 22.0053 30C22.5576 29.9996 23.0056 30.4471 23.006 30.9993C23.0064 31.5516 22.559 31.9996 22.0067 32C20.0286 32.0013 18.0945 31.416 16.4492 30.3179C14.8038 29.2199 13.521 27.6586 12.7631 25.8315C12.0052 24.0043 11.8062 21.9934 12.1913 20.0532C12.5764 18.1129 13.5283 16.3305 14.9266 14.9313C16.3248 13.5321 18.1067 12.579 20.0466 12.1926Z" fill="#78B548"/>
<path fill-rule="evenodd" clip-rule="evenodd" d="M18 20C18 19.4477 18.4477 19 19 19H19.01C19.5623 19 20.01 19.4477 20.01 20C20.01 20.5523 19.5623 21 19.01 21H19C18.4477 21 18 20.5523 18 20Z" fill="#78B548"/>
<path fill-rule="evenodd" clip-rule="evenodd" d="M24 20C24 19.4477 24.4477 19 25 19H25.01C25.5623 19 26.01 19.4477 26.01 20C26.01 20.5523 25.5623 21 25.01 21H25C24.4477 21 24 20.5523 24 20Z" fill="#78B548"/>
<path fill-rule="evenodd" clip-rule="evenodd" d="M18.8001 24.2857C19.1946 23.8992 19.8278 23.9057 20.2143 24.3001C20.4471 24.5377 20.7249 24.7265 21.0315 24.8553C21.3381 24.9841 21.6674 25.0505 22 25.0505C22.3326 25.0505 22.6619 24.9841 22.9685 24.8553C23.2751 24.7265 23.5529 24.5377 23.7857 24.3001C24.1722 23.9057 24.8054 23.8992 25.1999 24.2857C25.5943 24.6722 25.6008 25.3054 25.2143 25.6999C24.7953 26.1275 24.2952 26.4672 23.7433 26.6991C23.1913 26.9311 22.5987 27.0505 22 27.0505C21.4013 27.0505 20.8087 26.9311 20.2567 26.6991C19.7048 26.4672 19.2047 26.1275 18.7857 25.6999C18.3992 25.3054 18.4057 24.6722 18.8001 24.2857Z" fill="#78B548"/>
<path fill-rule="evenodd" clip-rule="evenodd" d="M29 24.5C29.4617 24.5 29.8634 24.8161 29.972 25.2649C30.1341 25.9349 30.4777 26.5473 30.9652 27.0348C31.4527 27.5223 32.0651 27.8659 32.7351 28.028C33.1839 28.1366 33.5 28.5383 33.5 29C33.5 29.4617 33.1839 29.8634 32.7351 29.972C32.0651 30.1341 31.4527 30.4777 30.9652 30.9652C30.4777 31.4527 30.1341 32.0651 29.972 32.7351C29.8634 33.1839 29.4617 33.5 29 33.5C28.5383 33.5 28.1366 33.1839 28.028 32.7351C27.8659 32.0651 27.5223 31.4527 27.0348 30.9652C26.5473 30.4777 25.9349 30.1341 25.2649 29.972C24.8161 29.8634 24.5 29.4617 24.5 29C24.5 28.5383 24.8161 28.1366 25.2649 28.028C25.9349 27.8659 26.5473 27.5223 27.0348 27.0348C27.5223 26.5473 27.8659 25.9349 28.028 25.2649C28.1366 24.8161 28.5383 24.5 29 24.5ZM29 27.8106C28.8328 28.0358 28.6488 28.2492 28.449 28.449C28.2492 28.6488 28.0358 28.8328 27.8106 29C28.0358 29.1672 28.2492 29.3512 28.449 29.551C28.6488 29.7508 28.8328 29.9642 29 30.1894C29.1672 29.9642 29.3512 29.7508 29.551 29.551C29.7508 29.3512 29.9642 29.1672 30.1894 29C29.9642 28.8328 29.7508 28.6488 29.551 28.449C29.3512 28.2492 29.1672 28.0358 29 27.8106Z" fill="#78B548"/>
</g>
<defs>
<clipPath id="clip0_2042_31715">
<rect width="24" height="24" fill="white" transform="translate(10 10)"/>
</clipPath>
</defs>
</svg>
