<svg width="44" height="45" viewBox="0 0 44 45" fill="none" xmlns="http://www.w3.org/2000/svg">
<circle cx="22" cy="22.5" r="21.5" stroke="#78B548"/>
<g clip-path="url(#clip0_2042_31704)">
<path fill-rule="evenodd" clip-rule="evenodd" d="M24.2726 12.8333C25.5421 13.0004 26.7661 13.416 27.875 14.0562C28.9838 14.6963 29.9557 15.5487 30.7352 16.5645C31.5146 17.5803 32.0864 18.7397 32.4178 19.9764C32.7492 21.2132 32.8337 22.5031 32.6666 23.7725C32.4995 25.042 32.0839 26.2661 31.4437 27.3749C30.8035 28.4837 29.9512 29.4556 28.9354 30.2351C27.9196 31.0145 26.7602 31.5863 25.5235 31.9177C24.2867 32.2491 22.9968 32.3336 21.7274 32.1665C20.4579 31.9994 19.2338 31.5838 18.125 30.9436C17.0161 30.3035 16.0442 29.4511 15.2648 28.4353C14.4853 27.4195 13.9136 26.2601 13.5822 25.0234C13.2508 23.7866 13.1663 22.4967 13.3334 21.2273C13.5005 19.9578 13.916 18.7337 14.5562 17.6249C15.1964 16.5161 16.0488 15.5442 17.0646 14.7647C18.0804 13.9853 19.2397 13.4135 20.4765 13.0821C21.7133 12.7507 23.0032 12.6662 24.2726 12.8333ZM27.125 15.3552C26.1867 14.8135 25.151 14.4619 24.0768 14.3205C23.0027 14.1791 21.9112 14.2506 20.8647 14.531C19.8182 14.8114 18.8372 15.2952 17.9777 15.9547C17.1182 16.6143 16.397 17.4366 15.8553 18.3749C15.3136 19.3132 14.962 20.3489 14.8206 21.4231C14.6792 22.4972 14.7507 23.5887 15.0311 24.6352C15.3115 25.6816 15.7953 26.6627 16.4548 27.5222C17.1144 28.3817 17.9367 29.1029 18.875 29.6446C19.8132 30.1863 20.849 30.5379 21.9231 30.6793C22.9973 30.8207 24.0888 30.7492 25.1352 30.4688C26.1817 30.1884 27.1628 29.7046 28.0223 29.0451C28.8818 28.3855 29.603 27.5632 30.1447 26.6249C30.6864 25.6866 31.038 24.6509 31.1794 23.5767C31.3208 22.5026 31.2493 21.4111 30.9689 20.3646C30.6885 19.3182 30.2047 18.3371 29.5452 17.4776C28.8856 16.6181 28.0632 15.8969 27.125 15.3552Z" fill="#78B548"/>
<path fill-rule="evenodd" clip-rule="evenodd" d="M20.9207 12.985C21.3144 12.8563 21.7379 13.071 21.8667 13.4647C22.2924 14.7664 22.4392 16.1432 22.2973 17.5054C22.1555 18.8676 21.7283 20.1846 21.0435 21.3707C20.3587 22.5567 19.4318 23.5852 18.323 24.3891C17.2142 25.1931 15.9485 25.7544 14.6084 26.0365C14.203 26.1219 13.8053 25.8624 13.7199 25.4571C13.6346 25.0518 13.894 24.654 14.2993 24.5687C15.4333 24.33 16.5043 23.855 17.4425 23.1748C18.3807 22.4945 19.1651 21.6243 19.7445 20.6207C20.3239 19.6171 20.6854 18.5027 20.8054 17.35C20.9254 16.1974 20.8013 15.0325 20.441 13.931C20.3122 13.5373 20.527 13.1138 20.9207 12.985Z" fill="#78B548"/>
<path fill-rule="evenodd" clip-rule="evenodd" d="M32.2801 19.5432C32.3654 19.9485 32.106 20.3463 31.7007 20.4316C30.5667 20.6703 29.4957 21.1453 28.5575 21.8255C27.6193 22.5058 26.8349 23.376 26.2555 24.3796C25.6761 25.3832 25.3146 26.4976 25.1946 27.6502C25.0746 28.8029 25.1987 29.9678 25.559 31.0693C25.6878 31.463 25.473 31.8865 25.0793 32.0153C24.6856 32.144 24.2621 31.9293 24.1333 31.5356C23.7076 30.2339 23.5608 28.8571 23.7027 27.4949C23.8445 26.1327 24.2717 24.8157 24.9565 23.6296C25.6413 22.4436 26.5682 21.4151 27.677 20.6111C28.7858 19.8072 30.0515 19.2459 31.3916 18.9638C31.797 18.8784 32.1947 19.1378 32.2801 19.5432Z" fill="#78B548"/>
</g>
<defs>
<clipPath id="clip0_2042_31704">
<rect width="24" height="24" fill="white" transform="translate(11 10.5)"/>
</clipPath>
</defs>
</svg>
