<svg width="66" height="75" viewBox="0 0 66 75" fill="none" xmlns="http://www.w3.org/2000/svg">
<path d="M51.3333 0.979492V8.31283H62.359C64.3683 8.31283 66 9.94449 66 11.9538V70.6718C65.999 71.6372 65.6151 72.5627 64.9325 73.2453C64.2499 73.9279 63.3244 74.3119 62.359 74.3128H3.641C2.67535 74.3128 1.74924 73.9292 1.06642 73.2464C0.383604 72.5636 0 71.6375 0 70.6718V11.9538C0 9.94449 1.63167 8.31283 3.641 8.31283H14.6667V0.979492H51.3333ZM14.6667 12.9385H4.62564V69.6872H61.3744V12.9385H51.3333V22.9795H14.6667V12.9385ZM21 52.3128C21.5523 52.3128 22 52.7605 22 53.3128V58.6462C22 59.1984 21.5523 59.6462 21 59.6462H15.6667C15.1144 59.6462 14.6667 59.1984 14.6667 58.6462V53.3128C14.6667 52.7605 15.1144 52.3128 15.6667 52.3128H21ZM21 41.3128C21.5523 41.3128 22 41.7605 22 42.3128V47.6462C22 48.1984 21.5523 48.6462 21 48.6462H15.6667C15.1144 48.6462 14.6667 48.1984 14.6667 47.6462V42.3128C14.6667 41.7605 15.1144 41.3128 15.6667 41.3128H21ZM21 30.3128C21.5523 30.3128 22 30.7605 22 31.3128V36.6462C22 37.1984 21.5523 37.6462 21 37.6462H15.6667C15.1144 37.6462 14.6667 37.1984 14.6667 36.6462V31.3128C14.6667 30.7605 15.1144 30.3128 15.6667 30.3128H21ZM46.7077 5.60513H19.2923V18.3539H46.7077V5.60513Z" fill="#78B548"/>
</svg>
