<svg width="38" height="40" viewBox="0 0 38 40" fill="none" xmlns="http://www.w3.org/2000/svg">
<g id="masajes" clip-path="url(#clip0_2024_392)">
<g id="Union">
<path fill-rule="evenodd" clip-rule="evenodd" d="M16.1707 7.70889C18.4943 7.2461 20.903 7.48282 23.092 8.38912C25.281 9.29541 27.1521 10.8306 28.4685 12.8004C29.7849 14.7702 30.4876 17.0862 30.4876 19.4554C30.4876 20.1169 29.9514 20.6532 29.2899 20.6532C28.6284 20.6532 28.0921 20.1169 28.0921 19.4554C28.0921 17.5601 27.53 15.7073 26.4769 14.1314C25.4237 12.5555 23.9269 11.3274 22.1757 10.6024C20.4244 9.87735 18.4975 9.68797 16.6387 10.0582C14.7798 10.4284 13.0725 11.3417 11.7327 12.6823C10.3929 14.023 9.48084 15.7309 9.11184 17.59C8.74285 19.4491 8.93351 21.3759 9.65972 23.1267C10.3859 24.8774 11.615 26.3734 13.1916 27.4255C14.7682 28.4776 16.6213 29.0385 18.5167 29.0373C19.1782 29.0368 19.7148 29.5727 19.7152 30.2342C19.7157 30.8957 19.1798 31.4323 18.5183 31.4327C16.1491 31.4343 13.8326 30.7332 11.8619 29.4181C9.89122 28.1029 8.35482 26.2329 7.44706 24.0445C6.53931 21.8561 6.30098 19.4476 6.76222 17.1237C7.22347 14.7998 8.36356 12.6649 10.0383 10.9891C11.713 9.3132 13.8472 8.17169 16.1707 7.70889ZM13.6105 17.0055C13.6105 16.2538 14.2169 15.6445 14.9648 15.6445H14.9784C15.7263 15.6445 16.3326 16.2538 16.3326 17.0055C16.3326 17.7572 15.7263 18.3666 14.9784 18.3666H14.9648C14.2169 18.3666 13.6105 17.7572 13.6105 17.0055ZM21.7714 15.6445C21.1731 15.6445 20.688 16.2538 20.688 17.0055C20.688 17.7572 21.1731 18.3666 21.7714 18.3666H21.7823C22.3806 18.3666 22.8657 17.7572 22.8657 17.0055C22.8657 16.2538 22.3806 15.6445 21.7823 15.6445H21.7714ZM15.0262 21.9391C15.4557 21.5252 16.1451 21.5321 16.566 21.9545C16.8194 22.2089 17.1219 22.411 17.4558 22.549C17.7897 22.687 18.1482 22.758 18.5103 22.758C18.8725 22.758 19.231 22.687 19.5648 22.549C19.8987 22.411 20.2012 22.2089 20.4547 21.9545C20.8755 21.5321 21.5649 21.5252 21.9945 21.9391C22.424 22.353 22.431 23.0309 22.0102 23.4533C21.554 23.9113 21.0094 24.275 20.4085 24.5234C19.8075 24.7717 19.1622 24.8997 18.5103 24.8997C17.8585 24.8997 17.2131 24.7717 16.6122 24.5234C16.0112 24.275 15.4667 23.9113 15.0105 23.4533C14.5896 23.0309 14.5966 22.353 15.0262 21.9391ZM27.8526 23.1029C27.7212 22.56 27.2352 22.1775 26.6766 22.1775C26.1181 22.1775 25.6321 22.56 25.5007 23.1029C25.3046 23.9136 24.8889 24.6545 24.2991 25.2442C23.7094 25.834 22.9685 26.2498 22.1578 26.4459C21.6149 26.5772 21.2324 27.0632 21.2324 27.6218C21.2324 28.1804 21.6149 28.6663 22.1578 28.7977C22.9685 28.9938 23.7094 29.4095 24.2991 29.9993C24.8889 30.589 25.3046 31.33 25.5007 32.1406C25.6321 32.6835 26.1181 33.066 26.6766 33.066C27.2352 33.066 27.7212 32.6835 27.8526 32.1406C28.0487 31.33 28.4644 30.589 29.0542 29.9993C29.6439 29.4095 30.3848 28.9938 31.1955 28.7977C31.7384 28.6663 32.1209 28.1804 32.1209 27.6218C32.1209 27.0632 31.7384 26.5772 31.1955 26.4459C30.3848 26.2498 29.6439 25.834 29.0542 25.2442C28.4644 24.6545 28.0487 23.9136 27.8526 23.1029ZM26.0101 26.9552C26.2518 26.7135 26.4744 26.4552 26.6766 26.1828C26.8789 26.4552 27.1015 26.7135 27.3432 26.9552C27.5849 27.1969 27.8432 27.4195 28.1156 27.6218C27.8432 27.824 27.5849 28.0466 27.3432 28.2883C27.1015 28.53 26.8789 28.7883 26.6766 29.0607C26.4744 28.7883 26.2518 28.53 26.0101 28.2883C25.7684 28.0466 25.5101 27.824 25.2377 27.6218C25.5101 27.4195 25.7684 27.1969 26.0101 26.9552Z" fill="#003C3E"/>
<path d="M23.092 8.38912L23.1302 8.29672L23.1302 8.29672L23.092 8.38912ZM16.1707 7.70889L16.1512 7.61082L16.1512 7.61082L16.1707 7.70889ZM28.4685 12.8004L28.3854 12.856L28.3854 12.856L28.4685 12.8004ZM26.4769 14.1314L26.56 14.0758L26.56 14.0758L26.4769 14.1314ZM22.1757 10.6024L22.2139 10.51L22.2139 10.51L22.1757 10.6024ZM11.7327 12.6823L11.8034 12.753L11.7327 12.6823ZM9.11184 17.59L9.20993 17.6095L9.20993 17.6095L9.11184 17.59ZM9.65972 23.1267L9.56735 23.165L9.56735 23.165L9.65972 23.1267ZM13.1916 27.4255L13.1361 27.5087L13.1361 27.5087L13.1916 27.4255ZM18.5167 29.0373L18.5166 28.9373L18.5166 28.9373L18.5167 29.0373ZM19.7152 30.2342L19.6152 30.2342L19.6152 30.2342L19.7152 30.2342ZM18.5183 31.4327L18.5184 31.5327L18.5184 31.5327L18.5183 31.4327ZM11.8619 29.4181L11.9174 29.3349L11.9174 29.3349L11.8619 29.4181ZM7.44706 24.0445L7.3547 24.0828L7.44706 24.0445ZM6.76222 17.1237L6.86031 17.1432L6.86031 17.1432L6.76222 17.1237ZM10.0383 10.9891L9.96756 10.9184L9.96756 10.9184L10.0383 10.9891ZM16.566 21.9545L16.4951 22.0251L16.4951 22.0251L16.566 21.9545ZM17.4558 22.549L17.4176 22.6414L17.4176 22.6414L17.4558 22.549ZM19.5648 22.549L19.603 22.6414L19.603 22.6414L19.5648 22.549ZM20.4547 21.9545L20.3838 21.8839L20.3838 21.8839L20.4547 21.9545ZM22.0102 23.4533L21.9393 23.3828L21.9393 23.3828L22.0102 23.4533ZM16.6122 24.5234L16.6504 24.431L16.6504 24.431L16.6122 24.5234ZM15.0105 23.4533L15.0813 23.3828L15.0813 23.3828L15.0105 23.4533ZM27.8526 23.1029L27.7554 23.1264L27.7554 23.1264L27.8526 23.1029ZM25.5007 23.1029L25.5979 23.1264L25.5979 23.1264L25.5007 23.1029ZM24.2991 25.2442L24.3698 25.3149L24.3698 25.3149L24.2991 25.2442ZM22.1578 26.4459L22.1813 26.543L22.1813 26.543L22.1578 26.4459ZM22.1578 28.7977L22.1813 28.7005L22.1813 28.7005L22.1578 28.7977ZM24.2991 29.9993L24.3698 29.9286L24.3698 29.9286L24.2991 29.9993ZM25.5007 32.1406L25.5979 32.1171L25.5979 32.1171L25.5007 32.1406ZM27.8526 32.1406L27.7554 32.1171L27.7554 32.1171L27.8526 32.1406ZM29.0542 29.9993L28.9835 29.9286L28.9835 29.9286L29.0542 29.9993ZM31.1955 28.7977L31.172 28.7005L31.172 28.7005L31.1955 28.7977ZM31.1955 26.4459L31.219 26.3487L31.219 26.3487L31.1955 26.4459ZM29.0542 25.2442L28.9835 25.3149L28.9835 25.3149L29.0542 25.2442ZM26.6766 26.1828L26.7569 26.1232C26.7381 26.0978 26.7083 26.0828 26.6766 26.0828C26.645 26.0828 26.6152 26.0978 26.5964 26.1232L26.6766 26.1828ZM28.1156 27.6218L28.1752 27.7021C28.2006 27.6832 28.2156 27.6534 28.2156 27.6218C28.2156 27.5901 28.2006 27.5603 28.1752 27.5415L28.1156 27.6218ZM26.6766 29.0607L26.5964 29.1203C26.6152 29.1457 26.645 29.1607 26.6766 29.1607C26.7083 29.1607 26.7381 29.1457 26.7569 29.1203L26.6766 29.0607ZM25.2377 27.6218L25.1781 27.5415C25.1527 27.5603 25.1377 27.5901 25.1377 27.6218C25.1377 27.6534 25.1527 27.6832 25.1781 27.7021L25.2377 27.6218ZM23.1302 8.29672C20.9229 7.38286 18.4942 7.14416 16.1512 7.61082L16.1903 7.80697C18.4945 7.34804 20.883 7.58278 23.0537 8.48151L23.1302 8.29672ZM28.5516 12.7448C27.2242 10.7586 25.3375 9.21059 23.1302 8.29672L23.0537 8.48151C25.2245 9.38024 27.0799 10.9026 28.3854 12.856L28.5516 12.7448ZM30.5876 19.4554C30.5876 17.0664 29.8791 14.7311 28.5516 12.7448L28.3854 12.856C29.6908 14.8093 30.3876 17.106 30.3876 19.4554H30.5876ZM29.2899 20.7532C30.0066 20.7532 30.5876 20.1722 30.5876 19.4554H30.3876C30.3876 20.0617 29.8961 20.5532 29.2899 20.5532V20.7532ZM27.9921 19.4554C27.9921 20.1722 28.5732 20.7532 29.2899 20.7532V20.5532C28.6836 20.5532 28.1921 20.0617 28.1921 19.4554H27.9921ZM26.3937 14.187C27.4359 15.7464 27.9921 17.5798 27.9921 19.4554H28.1921C28.1921 17.5403 27.6242 15.6681 26.56 14.0758L26.3937 14.187ZM22.1374 10.6948C23.8703 11.4122 25.3516 12.6276 26.3937 14.187L26.56 14.0758C25.4959 12.4835 23.9834 11.2426 22.2139 10.51L22.1374 10.6948ZM16.6582 10.1563C18.4977 9.7899 20.4045 9.97731 22.1374 10.6948L22.2139 10.51C20.4444 9.77738 18.4974 9.58603 16.6191 9.96013L16.6582 10.1563ZM11.8034 12.753C13.1292 11.4263 14.8187 10.5226 16.6582 10.1563L16.6191 9.96013C14.7409 10.3342 13.0157 11.257 11.662 12.6116L11.8034 12.753ZM9.20993 17.6095C9.57507 15.7698 10.4776 14.0797 11.8034 12.753L11.662 12.6116C10.3082 13.9663 9.3866 15.6921 9.01376 17.5706L9.20993 17.6095ZM9.75209 23.0884C9.03346 21.3559 8.84479 19.4492 9.20993 17.6095L9.01376 17.5706C8.64091 19.4491 8.83356 21.396 9.56735 23.165L9.75209 23.0884ZM13.2471 27.3424C11.687 26.3012 10.4707 24.8208 9.75209 23.0884L9.56735 23.165C10.3011 24.934 11.5431 26.4456 13.1361 27.5087L13.2471 27.3424ZM18.5166 28.9373C16.6411 28.9385 14.8072 28.3835 13.2471 27.3424L13.1361 27.5087C14.7291 28.5718 16.6016 29.1385 18.5168 29.1373L18.5166 28.9373ZM19.8152 30.2341C19.8148 29.5174 19.2334 28.9368 18.5166 28.9373L18.5168 29.1373C19.123 29.1369 19.6148 29.628 19.6152 30.2342L19.8152 30.2341ZM18.5184 31.5327C19.2351 31.5322 19.8157 30.9508 19.8152 30.2341L19.6152 30.2342C19.6156 30.8405 19.1245 31.3323 18.5182 31.3327L18.5184 31.5327ZM11.8064 29.5012C13.7936 30.8273 16.1294 31.5343 18.5184 31.5327L18.5182 31.3327C16.1688 31.3343 13.8717 30.639 11.9174 29.3349L11.8064 29.5012ZM7.3547 24.0828C8.27003 26.2895 9.81926 28.1751 11.8064 29.5012L11.9174 29.3349C9.96318 28.0307 8.43961 26.1763 7.53943 24.0062L7.3547 24.0828ZM6.66414 17.1042C6.19904 19.4475 6.43936 21.8761 7.3547 24.0828L7.53943 24.0062C6.63926 21.836 6.40292 19.4476 6.86031 17.1432L6.66414 17.1042ZM9.96756 10.9184C8.27884 12.6082 7.12923 14.7609 6.66414 17.1042L6.86031 17.1432C7.3177 14.8387 8.44828 12.7216 10.109 11.0597L9.96756 10.9184ZM16.1512 7.61082C13.8082 8.07748 11.6563 9.22852 9.96756 10.9184L10.109 11.0597C11.7698 9.39788 13.8861 8.26589 16.1903 7.80697L16.1512 7.61082ZM14.9648 15.5445C14.1612 15.5445 13.5105 16.1991 13.5105 17.0055H13.7105C13.7105 16.3086 14.2726 15.7445 14.9648 15.7445V15.5445ZM14.9784 15.5445H14.9648V15.7445H14.9784V15.5445ZM16.4326 17.0055C16.4326 16.1991 15.782 15.5445 14.9784 15.5445V15.7445C15.6706 15.7445 16.2326 16.3086 16.2326 17.0055H16.4326ZM14.9784 18.4666C15.782 18.4666 16.4326 17.812 16.4326 17.0055H16.2326C16.2326 17.7025 15.6706 18.2666 14.9784 18.2666V18.4666ZM14.9648 18.4666H14.9784V18.2666H14.9648V18.4666ZM13.5105 17.0055C13.5105 17.812 14.1612 18.4666 14.9648 18.4666V18.2666C14.2726 18.2666 13.7105 17.7025 13.7105 17.0055H13.5105ZM20.788 17.0055C20.788 16.2866 21.2484 15.7445 21.7714 15.7445V15.5445C21.0978 15.5445 20.588 16.2211 20.588 17.0055H20.788ZM21.7714 18.2666C21.2484 18.2666 20.788 17.7245 20.788 17.0055H20.588C20.588 17.79 21.0978 18.4666 21.7714 18.4666V18.2666ZM21.7823 18.2666H21.7714V18.4666H21.7823V18.2666ZM22.7657 17.0055C22.7657 17.7245 22.3053 18.2666 21.7823 18.2666V18.4666C22.4559 18.4666 22.9657 17.79 22.9657 17.0055H22.7657ZM21.7823 15.7445C22.3053 15.7445 22.7657 16.2866 22.7657 17.0055H22.9657C22.9657 16.2211 22.4559 15.5445 21.7823 15.5445V15.7445ZM21.7714 15.7445H21.7823V15.5445H21.7714V15.7445ZM16.6368 21.8839C16.1774 21.4228 15.4256 21.4153 14.9568 21.8671L15.0956 22.0111C15.4858 21.635 16.1128 21.6414 16.4951 22.0251L16.6368 21.8839ZM17.494 22.4566C17.1723 22.3236 16.8809 22.1289 16.6368 21.8839L16.4951 22.0251C16.758 22.2889 17.0716 22.4984 17.4176 22.6414L17.494 22.4566ZM18.5103 22.658C18.1612 22.658 17.8157 22.5895 17.494 22.4566L17.4176 22.6414C17.7636 22.7844 18.1351 22.858 18.5103 22.858V22.658ZM19.5267 22.4566C19.2049 22.5895 18.8594 22.658 18.5103 22.658V22.858C18.8855 22.858 19.257 22.7844 19.603 22.6414L19.5267 22.4566ZM20.3838 21.8839C20.1398 22.1289 19.8484 22.3236 19.5267 22.4566L19.603 22.6414C19.9491 22.4984 20.2627 22.2889 20.5255 22.0251L20.3838 21.8839ZM22.0638 21.8671C21.595 21.4153 20.8432 21.4228 20.3838 21.8839L20.5255 22.0251C20.9078 21.6414 21.5348 21.635 21.9251 22.0111L22.0638 21.8671ZM22.081 23.5239C22.5413 23.0619 22.5336 22.3197 22.0638 21.8671L21.9251 22.0111C22.3144 22.3862 22.3207 23 21.9393 23.3828L22.081 23.5239ZM20.4467 24.6158C21.0598 24.3624 21.6154 23.9913 22.081 23.5239L21.9393 23.3828C21.4925 23.8313 20.9591 24.1876 20.3703 24.431L20.4467 24.6158ZM18.5103 24.9997C19.1753 24.9997 19.8336 24.8692 20.4467 24.6158L20.3703 24.431C19.7815 24.6743 19.1491 24.7997 18.5103 24.7997V24.9997ZM16.574 24.6158C17.1871 24.8692 17.8454 24.9997 18.5103 24.9997V24.7997C17.8715 24.7997 17.2392 24.6743 16.6504 24.431L16.574 24.6158ZM14.9396 23.5239C15.4052 23.9913 15.9609 24.3624 16.574 24.6158L16.6504 24.431C16.0616 24.1876 15.5281 23.8313 15.0813 23.3828L14.9396 23.5239ZM14.9568 21.8671C14.487 22.3197 14.4793 23.0619 14.9396 23.5239L15.0813 23.3828C14.6999 23 14.7063 22.3862 15.0956 22.0111L14.9568 21.8671ZM26.6766 22.2775C27.1891 22.2775 27.6349 22.6284 27.7554 23.1264L27.9498 23.0794C27.8076 22.4916 27.2814 22.0775 26.6766 22.0775V22.2775ZM25.5979 23.1264C25.7184 22.6284 26.1642 22.2775 26.6766 22.2775V22.0775C26.0719 22.0775 25.5457 22.4916 25.4035 23.0794L25.5979 23.1264ZM24.3698 25.3149C24.9726 24.7122 25.3975 23.9549 25.5979 23.1264L25.4035 23.0794C25.2118 23.8722 24.8052 24.5968 24.2284 25.1735L24.3698 25.3149ZM22.1813 26.543C23.0098 26.3426 23.7671 25.9177 24.3698 25.3149L24.2284 25.1735C23.6516 25.7503 22.9271 26.1569 22.1343 26.3487L22.1813 26.543ZM21.3324 27.6218C21.3324 27.1093 21.6833 26.6635 22.1813 26.543L22.1343 26.3487C21.5465 26.4908 21.1324 27.017 21.1324 27.6218H21.3324ZM22.1813 28.7005C21.6833 28.58 21.3324 28.1342 21.3324 27.6218H21.1324C21.1324 28.2265 21.5465 28.7527 22.1343 28.8949L22.1813 28.7005ZM24.3698 29.9286C23.7671 29.3258 23.0098 28.9009 22.1813 28.7005L22.1343 28.8949C22.9271 29.0866 23.6516 29.4932 24.2284 30.07L24.3698 29.9286ZM25.5979 32.1171C25.3975 31.2886 24.9726 30.5313 24.3698 29.9286L24.2284 30.07C24.8052 30.6468 25.2118 31.3713 25.4035 32.1641L25.5979 32.1171ZM26.6766 32.966C26.1642 32.966 25.7184 32.6152 25.5979 32.1171L25.4035 32.1641C25.5457 32.7519 26.0719 33.166 26.6766 33.166V32.966ZM27.7554 32.1171C27.6349 32.6152 27.1891 32.966 26.6766 32.966V33.166C27.2814 33.166 27.8076 32.7519 27.9498 32.1641L27.7554 32.1171ZM28.9835 29.9286C28.3807 30.5313 27.9558 31.2886 27.7554 32.1171L27.9498 32.1641C28.1415 31.3713 28.5481 30.6468 29.1249 30.07L28.9835 29.9286ZM31.172 28.7005C30.3435 28.9009 29.5862 29.3258 28.9835 29.9286L29.1249 30.07C29.7016 29.4932 30.4262 29.0866 31.219 28.8949L31.172 28.7005ZM32.0209 27.6218C32.0209 28.1342 31.67 28.58 31.172 28.7005L31.219 28.8949C31.8068 28.7527 32.2209 28.2265 32.2209 27.6218H32.0209ZM31.172 26.543C31.67 26.6635 32.0209 27.1093 32.0209 27.6218H32.2209C32.2209 27.017 31.8068 26.4908 31.219 26.3487L31.172 26.543ZM28.9835 25.3149C29.5862 25.9177 30.3435 26.3426 31.172 26.543L31.219 26.3487C30.4262 26.1569 29.7016 25.7503 29.1249 25.1735L28.9835 25.3149ZM27.7554 23.1264C27.9558 23.9549 28.3807 24.7122 28.9835 25.3149L29.1249 25.1735C28.5481 24.5968 28.1415 23.8722 27.9498 23.0794L27.7554 23.1264ZM26.5964 26.1232C26.397 26.3917 26.1776 26.6462 25.9394 26.8845L26.0808 27.0259C26.3259 26.7807 26.5518 26.5188 26.7569 26.2424L26.5964 26.1232ZM27.4139 26.8845C27.1757 26.6462 26.9563 26.3917 26.7569 26.1232L26.5964 26.2424C26.8015 26.5188 27.0273 26.7807 27.2725 27.0259L27.4139 26.8845ZM28.1752 27.5415C27.9067 27.3421 27.6522 27.1227 27.4139 26.8845L27.2725 27.0259C27.5177 27.2711 27.7797 27.4969 28.056 27.7021L28.1752 27.5415ZM27.4139 28.3591C27.6522 28.1208 27.9067 27.9014 28.1752 27.7021L28.056 27.5415C27.7797 27.7466 27.5177 27.9725 27.2725 28.2176L27.4139 28.3591ZM26.7569 29.1203C26.9563 28.8518 27.1757 28.5973 27.4139 28.3591L27.2725 28.2176C27.0273 28.4628 26.8015 28.7248 26.5964 29.0011L26.7569 29.1203ZM25.9394 28.3591C26.1776 28.5973 26.397 28.8518 26.5964 29.1203L26.7569 29.0011C26.5518 28.7248 26.3259 28.4628 26.0808 28.2176L25.9394 28.3591ZM25.1781 27.7021C25.4466 27.9014 25.7011 28.1208 25.9394 28.3591L26.0808 28.2176C25.8356 27.9725 25.5736 27.7466 25.2973 27.5415L25.1781 27.7021ZM25.9394 26.8845C25.7011 27.1227 25.4466 27.3421 25.1781 27.5415L25.2973 27.7021C25.5736 27.4969 25.8356 27.2711 26.0808 27.0259L25.9394 26.8845Z" fill="white"/>
</g>
</g>
<defs>
<clipPath id="clip0_2024_392">
<rect width="38" height="38.1095" fill="white" transform="translate(0 0.945312)"/>
</clipPath>
</defs>
</svg>
