<svg width="18" height="17" viewBox="0 0 18 17" fill="none" xmlns="http://www.w3.org/2000/svg">
<g id="Capa_1" clip-path="url(#clip0_2021_38747)">
<path id="Vector" d="M8.56882 3.81885C7.08367 3.81885 5.87557 5.02207 5.87557 6.50122V6.74433C4.94967 6.80793 4.21533 7.57828 4.21533 8.51685V11.5706C4.21533 12.5502 5.01558 13.3472 5.99916 13.3472H11.1364C12.12 13.3472 12.9203 12.5502 12.9203 11.5706V8.51685C12.9203 7.57828 12.1859 6.80793 11.26 6.74433V6.50122C11.26 5.02207 10.0519 3.81885 8.56676 3.81885H8.56882ZM8.56882 4.74204C9.54313 4.74204 10.3351 5.53085 10.3351 6.50122V6.7392H6.80353V6.50122C6.80353 5.53085 7.59555 4.74204 8.56985 4.74204H8.56882ZM11.1375 12.424H6.00019C5.52746 12.424 5.14329 12.0414 5.14329 11.5706V8.51685C5.14329 8.04602 5.52746 7.66341 6.00019 7.66341H11.1375C11.6102 7.66341 11.9944 8.04602 11.9944 8.51685V11.5706C11.9944 12.0414 11.6102 12.424 11.1375 12.424Z" fill="#003C3E"/>
<path id="Vector_2" d="M8.5689 8.76318C8.12089 8.76318 7.75732 9.1263 7.75732 9.57149C7.75732 9.81562 7.8665 10.0433 8.05394 10.1962V11.0414C8.05394 11.3245 8.28465 11.5543 8.5689 11.5543C8.85316 11.5543 9.08387 11.3245 9.08387 11.0414V10.1962C9.27131 10.0433 9.38049 9.81562 9.38049 9.57149C9.38049 9.12528 9.01589 8.76318 8.5689 8.76318Z" fill="#003C3E"/>
<path id="Vector_3" d="M17.9732 4.17589C17.932 4.05998 17.8486 3.96663 17.7363 3.91329C17.6251 3.85995 17.4995 3.85277 17.382 3.8938C17.2657 3.93483 17.1709 4.01895 17.1174 4.12973L16.4736 5.4663C15.2233 2.1818 12.0707 0 8.51748 0C3.82102 0 0 3.81277 0 8.49949C0 13.1862 3.82102 16.999 8.51748 16.999C12.15 16.999 15.3861 14.6982 16.5705 11.2742C16.6539 11.0331 16.5251 10.7705 16.2831 10.6874C16.1657 10.6474 16.0401 10.6546 15.9288 10.709C15.8176 10.7634 15.7342 10.8567 15.694 10.9736C14.6383 14.0253 11.7545 16.0758 8.51748 16.0758C4.33186 16.0758 0.926933 12.6764 0.926933 8.49949C0.926933 4.32257 4.33186 0.923188 8.51748 0.923188C11.7288 0.923188 14.5467 2.89881 15.6404 5.87763L14.2706 5.2273C14.0399 5.11857 13.7629 5.21601 13.6527 5.44579C13.5425 5.67556 13.6414 5.95149 13.8721 6.06124L16.1781 7.15471C16.2409 7.18446 16.3078 7.19984 16.3768 7.19984C16.554 7.19984 16.7188 7.09727 16.795 6.93725L17.9547 4.52875C18.0082 4.41797 18.0154 4.2918 17.9743 4.17589H17.9732Z" fill="#003C3E"/>
</g>
<defs>
<clipPath id="clip0_2021_38747">
<rect width="18" height="17" fill="white"/>
</clipPath>
</defs>
</svg>
