<svg width="38" height="40" viewBox="0 0 38 40" fill="none" xmlns="http://www.w3.org/2000/svg">
<g id="masajes" clip-path="url(#clip0_2024_794)">
<g id="Union">
<path fill-rule="evenodd" clip-rule="evenodd" d="M19.327 8.2792C17.7284 8.2792 16.1952 8.92027 15.0649 10.0614C13.9345 11.2025 13.2994 12.7501 13.2994 14.3639C13.2994 17.1813 14.0558 19.6772 15.2154 21.4332C16.3806 23.1978 17.858 24.0995 19.327 24.0995C20.796 24.0995 22.2733 23.1978 23.4386 21.4332C24.5982 19.6772 25.3545 17.1813 25.3545 14.3639C25.3545 12.7501 24.7195 11.2025 23.5891 10.0614C22.4587 8.92027 20.9256 8.2792 19.327 8.2792ZM13.36 8.34035C14.9426 6.74281 17.0889 5.84532 19.327 5.84532C21.565 5.84532 23.7114 6.74281 25.2939 8.34035C26.8764 9.9379 27.7655 12.1046 27.7655 14.3639C27.7655 17.5948 26.9028 20.5751 25.4447 22.7832C24.261 24.5757 22.6214 25.9371 20.688 26.3797V26.6889C20.688 27.6171 20.3056 28.5073 19.625 29.1637C18.9443 29.82 18.0211 30.1887 17.0585 30.1887H13.4291C13.1082 30.1887 12.8005 30.3116 12.5736 30.5304C12.3467 30.7492 12.2192 31.0459 12.2192 31.3554C12.2192 31.9997 11.6776 32.522 11.0094 32.522C10.3412 32.522 9.79959 31.9997 9.79959 31.3554C9.79959 30.4271 10.182 29.5369 10.8626 28.8806C11.5433 28.2242 12.4665 27.8555 13.4291 27.8555H17.0585C17.3794 27.8555 17.6871 27.7326 17.914 27.5138C18.1409 27.295 18.2684 26.9983 18.2684 26.6889V26.4409C16.2034 26.0768 14.4542 24.6685 13.2092 22.7832C11.7511 20.5751 10.8884 17.5948 10.8884 14.3639C10.8884 12.1046 11.7775 9.9379 13.36 8.34035ZM17.9659 11.9701C17.9659 11.2935 18.5753 10.7451 19.327 10.7451C20.4099 10.7451 21.4485 11.1323 22.2142 11.8214C22.9799 12.5106 23.4101 13.4453 23.4101 14.42C23.4101 15.0965 22.8008 15.6449 22.0491 15.6449C21.2974 15.6449 20.688 15.0965 20.688 14.42C20.688 14.0951 20.5446 13.7835 20.2894 13.5538C20.0341 13.3241 19.6879 13.195 19.327 13.195C18.5753 13.195 17.9659 12.6466 17.9659 11.9701Z" fill="#003C3E"/>
<path d="M15.2154 21.4332L15.1319 21.4883L15.1319 21.4883L15.2154 21.4332ZM23.4386 21.4332L23.522 21.4883L23.522 21.4883L23.4386 21.4332ZM23.5891 10.0614L23.6601 9.991L23.6601 9.991L23.5891 10.0614ZM13.36 8.34035L13.289 8.26998L13.289 8.26998L13.36 8.34035ZM25.2939 8.34035L25.365 8.26998L25.365 8.26998L25.2939 8.34035ZM25.4447 22.7832L25.5281 22.8383L25.5281 22.8383L25.4447 22.7832ZM20.688 26.3797L20.6657 26.2822C20.6203 26.2926 20.588 26.3331 20.588 26.3797H20.688ZM12.5736 30.5304L12.5042 30.4584L12.5042 30.4584L12.5736 30.5304ZM10.8626 28.8806L10.9321 28.9526L10.9321 28.9526L10.8626 28.8806ZM17.914 27.5138L17.9834 27.5858L17.9834 27.5858L17.914 27.5138ZM18.2684 26.4409H18.3684C18.3684 26.3924 18.3335 26.3509 18.2857 26.3425L18.2684 26.4409ZM13.2092 22.7832L13.2927 22.7281L13.2927 22.7281L13.2092 22.7832ZM22.2142 11.8214L22.2811 11.7471L22.2811 11.7471L22.2142 11.8214ZM20.2894 13.5538L20.2225 13.6281L20.2225 13.6281L20.2894 13.5538ZM15.1359 10.1317C16.2476 9.0095 17.7552 8.3792 19.327 8.3792V8.1792C17.7015 8.1792 16.1429 8.83103 14.9938 9.991L15.1359 10.1317ZM13.3994 14.3639C13.3994 12.7764 14.0242 11.254 15.1359 10.1317L14.9938 9.991C13.8448 11.1509 13.1994 12.7239 13.1994 14.3639H13.3994ZM15.2988 21.3781C14.1515 19.6406 13.3994 17.1645 13.3994 14.3639H13.1994C13.1994 17.1981 13.9601 19.7138 15.1319 21.4883L15.2988 21.3781ZM19.327 23.9995C17.9021 23.9995 16.4522 23.1247 15.2988 21.3781L15.1319 21.4883C16.309 23.2708 17.8139 24.1995 19.327 24.1995V23.9995ZM23.3551 21.3781C22.2018 23.1247 20.7519 23.9995 19.327 23.9995V24.1995C20.8401 24.1995 22.3449 23.2708 23.522 21.4883L23.3551 21.3781ZM25.2545 14.3639C25.2545 17.1645 24.5025 19.6406 23.3551 21.3781L23.522 21.4883C24.6938 19.7138 25.4545 17.1981 25.4545 14.3639H25.2545ZM23.518 10.1317C24.6298 11.254 25.2545 12.7764 25.2545 14.3639H25.4545C25.4545 12.7239 24.8091 11.1509 23.6601 9.991L23.518 10.1317ZM19.327 8.3792C20.8987 8.3792 22.4063 9.0095 23.518 10.1317L23.6601 9.991C22.5111 8.83103 20.9524 8.1792 19.327 8.1792V8.3792ZM19.327 5.74532C17.0621 5.74532 14.8902 6.65358 13.289 8.26998L13.4311 8.41073C14.9949 6.83204 17.1158 5.94532 19.327 5.94532V5.74532ZM25.365 8.26998C23.7637 6.65358 21.5918 5.74532 19.327 5.74532V5.94532C21.5382 5.94532 23.659 6.83204 25.2229 8.41073L25.365 8.26998ZM27.8655 14.3639C27.8655 12.0784 26.9661 9.88635 25.365 8.26998L25.2229 8.41073C26.7868 9.98945 27.6655 12.1309 27.6655 14.3639H27.8655ZM25.5281 22.8383C26.9985 20.6116 27.8655 17.6115 27.8655 14.3639H27.6655C27.6655 17.578 26.8072 20.5385 25.3612 22.7281L25.5281 22.8383ZM20.7103 26.4772C22.6757 26.0273 24.3348 24.6455 25.5281 22.8383L25.3612 22.7281C24.1872 24.506 22.5671 25.847 20.6657 26.2822L20.7103 26.4772ZM20.588 26.3797V26.6889H20.788V26.3797H20.588ZM20.588 26.6889C20.588 27.5894 20.2171 28.4538 19.5556 29.0917L19.6944 29.2356C20.3942 28.5608 20.788 27.6448 20.788 26.6889H20.588ZM19.5556 29.0917C18.8939 29.7297 17.9958 30.0887 17.0585 30.0887V30.2887C18.0465 30.2887 18.9947 29.9103 19.6944 29.2356L19.5556 29.0917ZM17.0585 30.0887H13.4291V30.2887H17.0585V30.0887ZM13.4291 30.0887C13.0828 30.0887 12.7501 30.2213 12.5042 30.4584L12.643 30.6024C12.8509 30.402 13.1336 30.2887 13.4291 30.2887V30.0887ZM12.5042 30.4584C12.2582 30.6957 12.1192 31.0182 12.1192 31.3554H12.3192C12.3192 31.0737 12.4353 30.8027 12.643 30.6024L12.5042 30.4584ZM12.1192 31.3554C12.1192 31.941 11.6258 32.422 11.0094 32.422V32.622C11.7294 32.622 12.3192 32.0583 12.3192 31.3554H12.1192ZM11.0094 32.422C10.393 32.422 9.89959 31.941 9.89959 31.3554H9.69959C9.69959 32.0583 10.2895 32.622 11.0094 32.622V32.422ZM9.89959 31.3554C9.89959 30.4549 10.2705 29.5905 10.9321 28.9526L10.7932 28.8086C10.0934 29.4834 9.69959 30.3994 9.69959 31.3554H9.89959ZM10.9321 28.9526C11.5937 28.3146 12.4918 27.9555 13.4291 27.9555V27.7555C12.4411 27.7555 11.4929 28.1339 10.7932 28.8086L10.9321 28.9526ZM13.4291 27.9555H17.0585V27.7555H13.4291V27.9555ZM17.0585 27.9555C17.4048 27.9555 17.7375 27.8229 17.9834 27.5858L17.8446 27.4418C17.6367 27.6423 17.354 27.7555 17.0585 27.7555V27.9555ZM17.9834 27.5858C18.2295 27.3486 18.3684 27.026 18.3684 26.6889H18.1684C18.1684 26.9706 18.0524 27.2415 17.8446 27.4418L17.9834 27.5858ZM18.3684 26.6889V26.4409H18.1684V26.6889H18.3684ZM13.1258 22.8383C14.3808 24.7389 16.1512 26.1692 18.251 26.5394L18.2857 26.3425C16.2557 25.9845 14.5275 24.5981 13.2927 22.7281L13.1258 22.8383ZM10.7884 14.3639C10.7884 17.6115 11.6554 20.6116 13.1258 22.8383L13.2927 22.7281C11.8468 20.5385 10.9884 17.578 10.9884 14.3639H10.7884ZM13.289 8.26998C11.6878 9.88635 10.7884 12.0784 10.7884 14.3639H10.9884C10.9884 12.1309 11.8672 9.98945 13.4311 8.41073L13.289 8.26998ZM19.327 10.6451C18.5302 10.6451 17.8659 11.2287 17.8659 11.9701H18.0659C18.0659 11.3584 18.6203 10.8451 19.327 10.8451V10.6451ZM22.2811 11.7471C21.496 11.0405 20.4332 10.6451 19.327 10.6451V10.8451C20.3866 10.8451 21.4009 11.224 22.1473 11.8958L22.2811 11.7471ZM23.5101 14.42C23.5101 13.4152 23.0665 12.454 22.2811 11.7471L22.1473 11.8958C22.8933 12.5672 23.3101 13.4755 23.3101 14.42H23.5101ZM22.0491 15.7449C22.8458 15.7449 23.5101 15.1614 23.5101 14.42H23.3101C23.3101 15.0316 22.7557 15.5449 22.0491 15.5449V15.7449ZM20.588 14.42C20.588 15.1614 21.2523 15.7449 22.0491 15.7449V15.5449C21.3424 15.5449 20.788 15.0316 20.788 14.42H20.588ZM20.2225 13.6281C20.458 13.8401 20.588 14.1252 20.588 14.42H20.788C20.788 14.065 20.6312 13.7269 20.3563 13.4795L20.2225 13.6281ZM19.327 13.295C19.6646 13.295 19.9866 13.4158 20.2225 13.6281L20.3563 13.4795C20.0817 13.2323 19.7113 13.095 19.327 13.095V13.295ZM17.8659 11.9701C17.8659 12.7115 18.5302 13.295 19.327 13.295V13.095C18.6203 13.095 18.0659 12.5817 18.0659 11.9701H17.8659Z" fill="white"/>
</g>
</g>
<defs>
<clipPath id="clip0_2024_794">
<rect width="38" height="38.1095" fill="white" transform="translate(0 0.945312)"/>
</clipPath>
</defs>
</svg>
