<svg width="38" height="40" viewBox="0 0 38 40" fill="none" xmlns="http://www.w3.org/2000/svg">
<g id="masajes" clip-path="url(#clip0_2024_779)">
<g id="Union">
<mask id="path-1-outside-1_2024_779" maskUnits="userSpaceOnUse" x="4.2536" y="4.69482" width="30" height="29" fill="black">
<rect fill="white" x="4.2536" y="4.69482" width="30" height="29"/>
<path fill-rule="evenodd" clip-rule="evenodd" d="M19.4958 5.51273C19.2329 5.39322 18.9311 5.39322 18.6682 5.51273L10.8286 9.07617C10.6336 9.16479 10.4723 9.31367 10.3683 9.50089L6.80482 15.9151C6.72229 16.0636 6.67898 16.2308 6.67898 16.4007V31.0799H6.2536C5.70132 31.0799 5.2536 31.5276 5.2536 32.0799C5.2536 32.6321 5.70132 33.0799 6.2536 33.0799H14.796C14.7993 33.0799 14.8026 33.0799 14.8059 33.0799C14.8092 33.0799 14.8125 33.0799 14.8157 33.0799H23.3483C23.3515 33.0799 23.3548 33.0799 23.3581 33.0799C23.3614 33.0799 23.3647 33.0799 23.368 33.0799H31.9104C32.4626 33.0799 32.9104 32.6321 32.9104 32.0799C32.9104 31.5276 32.4626 31.0799 31.9104 31.0799H31.485V16.4007C31.485 16.2308 31.4417 16.0636 31.3591 15.9151L27.7957 9.50089C27.6917 9.31367 27.5303 9.16479 27.3353 9.07617L19.4958 5.51273ZM24.3581 31.0799H29.485V16.6598L26.2075 10.7604L19.082 7.52155L11.9564 10.7604L8.67898 16.6598V31.0799H13.8059V24.953C13.8059 24.3098 14.0614 23.6929 14.5163 23.238C14.9711 22.7832 15.588 22.5276 16.2313 22.5276H21.9328C22.576 22.5276 23.1929 22.7832 23.6478 23.238C24.1026 23.6929 24.3581 24.3098 24.3581 24.953V31.0799ZM15.8059 31.0799H22.3581V24.953C22.3581 24.8402 22.3133 24.732 22.2335 24.6522C22.1538 24.5725 22.0456 24.5276 21.9328 24.5276H16.2313C16.1184 24.5276 16.0102 24.5725 15.9305 24.6522C15.8507 24.732 15.8059 24.8402 15.8059 24.953V31.0799ZM16.359 12.2525C17.0812 11.5303 18.0607 11.1246 19.0819 11.1246C20.1032 11.1246 21.0827 11.5303 21.8048 12.2525C22.527 12.9746 22.9327 13.9541 22.9327 14.9754C22.9327 15.9966 22.527 16.9761 21.8048 17.6983C21.0827 18.4204 20.1032 18.8261 19.0819 18.8261C18.0607 18.8261 17.0812 18.4204 16.359 17.6983C15.6369 16.9761 15.2312 15.9966 15.2312 14.9754C15.2312 13.9541 15.6369 12.9746 16.359 12.2525ZM19.0819 13.1246C18.5911 13.1246 18.1203 13.3196 17.7733 13.6667C17.4262 14.0138 17.2312 14.4845 17.2312 14.9754C17.2312 15.4662 17.4262 15.937 17.7733 16.284C18.1203 16.6311 18.5911 16.8261 19.0819 16.8261C19.5728 16.8261 20.0435 16.6311 20.3906 16.284C20.7377 15.937 20.9327 15.4662 20.9327 14.9754C20.9327 14.4845 20.7377 14.0138 20.3906 13.6667C20.0435 13.3196 19.5728 13.1246 19.0819 13.1246Z"/>
</mask>
<path fill-rule="evenodd" clip-rule="evenodd" d="M19.4958 5.51273C19.2329 5.39322 18.9311 5.39322 18.6682 5.51273L10.8286 9.07617C10.6336 9.16479 10.4723 9.31367 10.3683 9.50089L6.80482 15.9151C6.72229 16.0636 6.67898 16.2308 6.67898 16.4007V31.0799H6.2536C5.70132 31.0799 5.2536 31.5276 5.2536 32.0799C5.2536 32.6321 5.70132 33.0799 6.2536 33.0799H14.796C14.7993 33.0799 14.8026 33.0799 14.8059 33.0799C14.8092 33.0799 14.8125 33.0799 14.8157 33.0799H23.3483C23.3515 33.0799 23.3548 33.0799 23.3581 33.0799C23.3614 33.0799 23.3647 33.0799 23.368 33.0799H31.9104C32.4626 33.0799 32.9104 32.6321 32.9104 32.0799C32.9104 31.5276 32.4626 31.0799 31.9104 31.0799H31.485V16.4007C31.485 16.2308 31.4417 16.0636 31.3591 15.9151L27.7957 9.50089C27.6917 9.31367 27.5303 9.16479 27.3353 9.07617L19.4958 5.51273ZM24.3581 31.0799H29.485V16.6598L26.2075 10.7604L19.082 7.52155L11.9564 10.7604L8.67898 16.6598V31.0799H13.8059V24.953C13.8059 24.3098 14.0614 23.6929 14.5163 23.238C14.9711 22.7832 15.588 22.5276 16.2313 22.5276H21.9328C22.576 22.5276 23.1929 22.7832 23.6478 23.238C24.1026 23.6929 24.3581 24.3098 24.3581 24.953V31.0799ZM15.8059 31.0799H22.3581V24.953C22.3581 24.8402 22.3133 24.732 22.2335 24.6522C22.1538 24.5725 22.0456 24.5276 21.9328 24.5276H16.2313C16.1184 24.5276 16.0102 24.5725 15.9305 24.6522C15.8507 24.732 15.8059 24.8402 15.8059 24.953V31.0799ZM16.359 12.2525C17.0812 11.5303 18.0607 11.1246 19.0819 11.1246C20.1032 11.1246 21.0827 11.5303 21.8048 12.2525C22.527 12.9746 22.9327 13.9541 22.9327 14.9754C22.9327 15.9966 22.527 16.9761 21.8048 17.6983C21.0827 18.4204 20.1032 18.8261 19.0819 18.8261C18.0607 18.8261 17.0812 18.4204 16.359 17.6983C15.6369 16.9761 15.2312 15.9966 15.2312 14.9754C15.2312 13.9541 15.6369 12.9746 16.359 12.2525ZM19.0819 13.1246C18.5911 13.1246 18.1203 13.3196 17.7733 13.6667C17.4262 14.0138 17.2312 14.4845 17.2312 14.9754C17.2312 15.4662 17.4262 15.937 17.7733 16.284C18.1203 16.6311 18.5911 16.8261 19.0819 16.8261C19.5728 16.8261 20.0435 16.6311 20.3906 16.284C20.7377 15.937 20.9327 15.4662 20.9327 14.9754C20.9327 14.4845 20.7377 14.0138 20.3906 13.6667C20.0435 13.3196 19.5728 13.1246 19.0819 13.1246Z" fill="#003C3E"/>
<path d="M18.6682 5.51273L18.4613 5.05754L18.4613 5.05755L18.6682 5.51273ZM19.4958 5.51273L19.7027 5.05755L19.7027 5.05754L19.4958 5.51273ZM10.8286 9.07617L10.6217 8.62098L10.6217 8.62098L10.8286 9.07617ZM10.3683 9.50089L9.93118 9.25807L9.93118 9.25807L10.3683 9.50089ZM6.80482 15.9151L6.36774 15.6723L6.36774 15.6723L6.80482 15.9151ZM6.67898 31.0799V31.5799C6.95512 31.5799 7.17898 31.356 7.17898 31.0799H6.67898ZM14.796 33.0799L14.8009 32.5799H14.796V33.0799ZM14.8157 33.0799L14.8157 32.5798L14.8108 32.5799L14.8157 33.0799ZM23.3483 33.0799L23.3532 32.5799H23.3483V33.0799ZM23.368 33.0799L23.368 32.5798L23.3631 32.5799L23.368 33.0799ZM31.485 31.0799H30.985C30.985 31.356 31.2088 31.5799 31.485 31.5799V31.0799ZM31.3591 15.9151L30.9221 16.1579L30.9221 16.1579L31.3591 15.9151ZM27.7957 9.50089L28.2328 9.25807L28.2328 9.25807L27.7957 9.50089ZM27.3353 9.07617L27.1284 9.53135L27.1284 9.53135L27.3353 9.07617ZM29.485 31.0799V31.5799C29.7611 31.5799 29.985 31.356 29.985 31.0799H29.485ZM24.3581 31.0799H23.8581C23.8581 31.356 24.082 31.5799 24.3581 31.5799V31.0799ZM29.485 16.6598H29.985C29.985 16.5749 29.9633 16.4913 29.9221 16.417L29.485 16.6598ZM26.2075 10.7604L26.6446 10.5176C26.5926 10.424 26.5119 10.3496 26.4144 10.3053L26.2075 10.7604ZM19.082 7.52155L19.2889 7.06637C19.1574 7.00661 19.0065 7.00661 18.8751 7.06637L19.082 7.52155ZM11.9564 10.7604L11.7495 10.3053C11.652 10.3496 11.5714 10.424 11.5193 10.5176L11.9564 10.7604ZM8.67898 16.6598L8.2419 16.417C8.20064 16.4913 8.17898 16.5749 8.17898 16.6598H8.67898ZM8.67898 31.0799H8.17898C8.17898 31.356 8.40284 31.5799 8.67898 31.5799V31.0799ZM13.8059 31.0799V31.5799C14.082 31.5799 14.3059 31.356 14.3059 31.0799H13.8059ZM14.5163 23.238L14.1627 22.8845L14.1627 22.8845L14.5163 23.238ZM23.6478 23.238L24.0013 22.8845L24.0013 22.8845L23.6478 23.238ZM22.3581 31.0799V31.5799C22.6343 31.5799 22.8581 31.356 22.8581 31.0799H22.3581ZM15.8059 31.0799H15.3059C15.3059 31.356 15.5297 31.5799 15.8059 31.5799V31.0799ZM22.2335 24.6522L21.88 25.0058L21.88 25.0058L22.2335 24.6522ZM15.9305 24.6522L16.284 25.0058L16.284 25.0058L15.9305 24.6522ZM16.359 12.2525L16.7126 12.606L16.7126 12.606L16.359 12.2525ZM21.8048 12.2525L22.1584 11.8989L21.8048 12.2525ZM17.7733 13.6667L17.4197 13.3131L17.4197 13.3131L17.7733 13.6667ZM20.3906 13.6667L20.7442 13.3131L20.7442 13.3131L20.3906 13.6667ZM18.8751 5.96791C19.0065 5.90816 19.1574 5.90816 19.2889 5.96791L19.7027 5.05754C19.3083 4.87828 18.8557 4.87828 18.4613 5.05754L18.8751 5.96791ZM11.0355 9.53135L18.8751 5.96791L18.4613 5.05755L10.6217 8.62098L11.0355 9.53135ZM10.8053 9.74371C10.8573 9.6501 10.938 9.57566 11.0355 9.53135L10.6217 8.62098C10.3293 8.75392 10.0872 8.97724 9.93118 9.25807L10.8053 9.74371ZM7.2419 16.1579L10.8053 9.74371L9.93118 9.25807L6.36774 15.6723L7.2419 16.1579ZM7.17898 16.4007C7.17898 16.3157 7.20063 16.2322 7.2419 16.1579L6.36774 15.6723C6.24395 15.8951 6.17898 16.1458 6.17898 16.4007H7.17898ZM7.17898 31.0799V16.4007H6.17898V31.0799H7.17898ZM6.2536 31.5799H6.67898V30.5799H6.2536V31.5799ZM5.7536 32.0799C5.7536 31.8037 5.97746 31.5799 6.2536 31.5799V30.5799C5.42517 30.5799 4.7536 31.2514 4.7536 32.0799H5.7536ZM6.2536 32.5799C5.97746 32.5799 5.7536 32.356 5.7536 32.0799H4.7536C4.7536 32.9083 5.42517 33.5799 6.2536 33.5799V32.5799ZM14.796 32.5799H6.2536V33.5799H14.796V32.5799ZM14.8059 32.5799C14.8041 32.5799 14.8025 32.5799 14.8009 32.5799L14.7911 33.5798C14.7961 33.5799 14.801 33.5799 14.8059 33.5799V32.5799ZM14.8108 32.5799C14.8093 32.5799 14.8076 32.5799 14.8059 32.5799V33.5799C14.8107 33.5799 14.8156 33.5799 14.8207 33.5798L14.8108 32.5799ZM23.3483 32.5799H14.8157V33.5799H23.3483V32.5799ZM23.3581 32.5799C23.3564 32.5799 23.3547 32.5799 23.3532 32.5799L23.3433 33.5798C23.3484 33.5799 23.3533 33.5799 23.3581 33.5799V32.5799ZM23.3631 32.5799C23.3615 32.5799 23.3599 32.5799 23.3581 32.5799V33.5799C23.363 33.5799 23.3679 33.5799 23.3729 33.5798L23.3631 32.5799ZM31.9104 32.5799H23.368V33.5799H31.9104V32.5799ZM32.4104 32.0799C32.4104 32.356 32.1865 32.5799 31.9104 32.5799V33.5799C32.7388 33.5799 33.4104 32.9083 33.4104 32.0799H32.4104ZM31.9104 31.5799C32.1865 31.5799 32.4104 31.8037 32.4104 32.0799H33.4104C33.4104 31.2514 32.7388 30.5799 31.9104 30.5799V31.5799ZM31.485 31.5799H31.9104V30.5799H31.485V31.5799ZM30.985 16.4007V31.0799H31.985V16.4007H30.985ZM30.9221 16.1579C30.9633 16.2322 30.985 16.3157 30.985 16.4007H31.985C31.985 16.1458 31.92 15.8951 31.7962 15.6723L30.9221 16.1579ZM27.3586 9.74371L30.9221 16.1579L31.7962 15.6723L28.2328 9.25807L27.3586 9.74371ZM27.1284 9.53135C27.2259 9.57566 27.3066 9.6501 27.3586 9.74371L28.2328 9.25807C28.0768 8.97724 27.8347 8.75392 27.5422 8.62098L27.1284 9.53135ZM19.2889 5.96791L27.1284 9.53135L27.5422 8.62098L19.7027 5.05755L19.2889 5.96791ZM29.485 30.5799H24.3581V31.5799H29.485V30.5799ZM28.985 16.6598V31.0799H29.985V16.6598H28.985ZM25.7705 11.0033L29.0479 16.9027L29.9221 16.417L26.6446 10.5176L25.7705 11.0033ZM18.8751 7.97674L26.0006 11.2156L26.4144 10.3053L19.2889 7.06637L18.8751 7.97674ZM12.1633 11.2156L19.2889 7.97674L18.8751 7.06637L11.7495 10.3053L12.1633 11.2156ZM9.11606 16.9027L12.3935 11.0033L11.5193 10.5176L8.2419 16.417L9.11606 16.9027ZM9.17898 31.0799V16.6598H8.17898V31.0799H9.17898ZM13.8059 30.5799H8.67898V31.5799H13.8059V30.5799ZM14.3059 31.0799V24.953H13.3059V31.0799H14.3059ZM14.3059 24.953C14.3059 24.4424 14.5087 23.9527 14.8698 23.5916L14.1627 22.8845C13.6141 23.4331 13.3059 24.1772 13.3059 24.953H14.3059ZM14.8698 23.5916C15.2309 23.2305 15.7206 23.0276 16.2313 23.0276V22.0276C15.4554 22.0276 14.7113 22.3359 14.1627 22.8845L14.8698 23.5916ZM16.2313 23.0276H21.9328V22.0276H16.2313V23.0276ZM21.9328 23.0276C22.4434 23.0276 22.9331 23.2305 23.2942 23.5916L24.0013 22.8845C23.4527 22.3359 22.7086 22.0276 21.9328 22.0276V23.0276ZM23.2942 23.5916C23.6553 23.9527 23.8581 24.4424 23.8581 24.953H24.8581C24.8581 24.1772 24.5499 23.4331 24.0013 22.8845L23.2942 23.5916ZM23.8581 24.953V31.0799H24.8581V24.953H23.8581ZM22.3581 30.5799H15.8059V31.5799H22.3581V30.5799ZM22.8581 31.0799V24.953H21.8581V31.0799H22.8581ZM22.8581 24.953C22.8581 24.7076 22.7606 24.4722 22.5871 24.2987L21.88 25.0058C21.866 24.9918 21.8581 24.9728 21.8581 24.953H22.8581ZM22.5871 24.2987C22.4135 24.1251 22.1782 24.0276 21.9328 24.0276V25.0276C21.913 25.0276 21.894 25.0198 21.88 25.0058L22.5871 24.2987ZM21.9328 24.0276H16.2313V25.0276H21.9328V24.0276ZM16.2313 24.0276C15.9858 24.0276 15.7505 24.1251 15.5769 24.2987L16.284 25.0058C16.27 25.0198 16.251 25.0276 16.2313 25.0276V24.0276ZM15.5769 24.2987C15.4034 24.4722 15.3059 24.7076 15.3059 24.953H16.3059C16.3059 24.9728 16.298 24.9918 16.284 25.0058L15.5769 24.2987ZM15.3059 24.953V31.0799H16.3059V24.953H15.3059ZM19.0819 10.6246C17.928 10.6246 16.8214 11.083 16.0055 11.8989L16.7126 12.606C17.341 11.9776 18.1933 11.6246 19.0819 11.6246V10.6246ZM22.1584 11.8989C21.3425 11.083 20.2358 10.6246 19.0819 10.6246V11.6246C19.9706 11.6246 20.8229 11.9776 21.4513 12.606L22.1584 11.8989ZM23.4327 14.9754C23.4327 13.8215 22.9743 12.7148 22.1584 11.8989L21.4513 12.606C22.0797 13.2344 22.4327 14.0867 22.4327 14.9754H23.4327ZM22.1584 18.0518C22.9743 17.2359 23.4327 16.1293 23.4327 14.9754H22.4327C22.4327 15.864 22.0797 16.7163 21.4513 17.3447L22.1584 18.0518ZM19.0819 19.3261C20.2358 19.3261 21.3425 18.8677 22.1584 18.0518L21.4513 17.3447C20.8229 17.9731 19.9706 18.3261 19.0819 18.3261V19.3261ZM16.0055 18.0518C16.8214 18.8677 17.928 19.3261 19.0819 19.3261V18.3261C18.1933 18.3261 17.341 17.9731 16.7126 17.3447L16.0055 18.0518ZM14.7312 14.9754C14.7312 16.1293 15.1896 17.2359 16.0055 18.0518L16.7126 17.3447C16.0842 16.7163 15.7312 15.864 15.7312 14.9754H14.7312ZM16.0055 11.8989C15.1896 12.7148 14.7312 13.8215 14.7312 14.9754H15.7312C15.7312 14.0867 16.0842 13.2344 16.7126 12.606L16.0055 11.8989ZM18.1268 14.0202C18.3801 13.7669 18.7237 13.6246 19.0819 13.6246V12.6246C18.4585 12.6246 17.8606 12.8723 17.4197 13.3131L18.1268 14.0202ZM17.7312 14.9754C17.7312 14.6171 17.8735 14.2736 18.1268 14.0202L17.4197 13.3131C16.9789 13.754 16.7312 14.3519 16.7312 14.9754H17.7312ZM18.1268 15.9305C17.8735 15.6772 17.7312 15.3336 17.7312 14.9754H16.7312C16.7312 15.5988 16.9789 16.1967 17.4197 16.6376L18.1268 15.9305ZM19.0819 16.3261C18.7237 16.3261 18.3801 16.1838 18.1268 15.9305L17.4197 16.6376C17.8606 17.0784 18.4585 17.3261 19.0819 17.3261V16.3261ZM20.0371 15.9305C19.7837 16.1838 19.4402 16.3261 19.0819 16.3261V17.3261C19.7054 17.3261 20.3033 17.0784 20.7442 16.6376L20.0371 15.9305ZM20.4327 14.9754C20.4327 15.3336 20.2904 15.6772 20.0371 15.9305L20.7442 16.6376C21.185 16.1967 21.4327 15.5988 21.4327 14.9754H20.4327ZM20.0371 14.0202C20.2904 14.2736 20.4327 14.6171 20.4327 14.9754H21.4327C21.4327 14.3519 21.185 13.754 20.7442 13.3131L20.0371 14.0202ZM19.0819 13.6246C19.4402 13.6246 19.7837 13.7669 20.0371 14.0202L20.7442 13.3131C20.3033 12.8723 19.7054 12.6246 19.0819 12.6246V13.6246Z" fill="#003C3E" mask="url(#path-1-outside-1_2024_779)"/>
</g>
</g>
<defs>
<clipPath id="clip0_2024_779">
<rect width="38" height="38.1095" fill="white" transform="translate(0 0.945312)"/>
</clipPath>
</defs>
</svg>
