<svg width="38" height="40" viewBox="0 0 38 40" fill="none" xmlns="http://www.w3.org/2000/svg">
<g id="masajes" clip-path="url(#clip0_2024_610)">
<g id="Union">
<mask id="path-1-inside-1_2024_610" fill="white">
<path fill-rule="evenodd" clip-rule="evenodd" d="M25.0434 7.29711C25.0434 6.4953 24.434 5.84532 23.6823 5.84532C22.9306 5.84532 22.3213 6.4953 22.3213 7.29711V8.7489C22.3213 9.5507 22.9306 10.2007 23.6823 10.2007C24.434 10.2007 25.0434 9.5507 25.0434 8.7489V7.29711ZM8.09826 11.834C7.68314 11.834 7.28502 11.9989 6.99149 12.2924C6.69796 12.5859 6.53305 12.984 6.53305 13.3992C6.53305 16.305 7.68739 19.0918 9.74213 21.1466C10.519 21.9235 11.4006 22.5716 12.3536 23.0773L8.32757 31.3454C7.9511 32.1185 8.25629 33.0587 9.00923 33.4452C9.76218 33.8318 10.6778 33.5184 11.0542 32.7453L12.2234 30.3443H22.5259C22.746 31.0592 23.1381 31.7168 23.6767 32.2554C24.5445 33.1233 25.7215 33.6108 26.9489 33.6108C28.1762 33.6108 29.3532 33.1233 30.2211 32.2554C31.0889 31.3876 31.5764 30.2105 31.5764 28.9832C31.5764 27.7559 31.0889 26.5789 30.2211 25.711C29.3532 24.8432 28.1762 24.3556 26.9489 24.3556C26.8332 24.3556 26.718 24.36 26.6034 24.3686L25.9162 22.9942C26.75 22.5345 27.5271 21.9645 28.2245 21.2932C30.2679 19.3265 31.469 16.6441 31.5753 13.81C31.5761 13.7905 31.5764 13.7709 31.5764 13.7513V13.3992C31.5764 12.5347 30.8757 11.834 30.0112 11.834H8.09826ZM22.5259 27.6222H13.5489L15.2519 24.1248C15.9825 24.2772 16.7319 24.3556 17.4895 24.3556H20.62C21.3689 24.3561 22.1101 24.2799 22.8332 24.1312L23.6411 25.747C23.1208 26.2788 22.7411 26.9232 22.5259 27.6222ZM11.9557 18.933C10.8626 17.8399 10.1262 16.4567 9.82156 14.9644H10.0102H28.2945C27.9794 16.508 27.2031 17.9314 26.0537 19.0377C24.5942 20.4425 22.6457 21.2266 20.62 21.2252H17.4895C17.3495 21.2252 17.2098 21.2215 17.0707 21.214C15.1477 21.111 13.3243 20.3017 11.9557 18.933ZM25.8581 27.8925C26.1474 27.6032 26.5398 27.4407 26.9489 27.4407C27.358 27.4407 27.7503 27.6032 28.0396 27.8925C28.3289 28.1818 28.4914 28.5741 28.4914 28.9832C28.4914 29.3923 28.3289 29.7847 28.0396 30.074C27.7503 30.3632 27.358 30.5258 26.9489 30.5258C26.5398 30.5258 26.1474 30.3632 25.8581 30.074C25.5688 29.7847 25.4063 29.3923 25.4063 28.9832C25.4063 28.5741 25.5688 28.1818 25.8581 27.8925ZM18.7825 5.84532C19.5342 5.84532 20.1436 6.4953 20.1436 7.29711V8.7489C20.1436 9.5507 19.5342 10.2007 18.7825 10.2007C18.0308 10.2007 17.4215 9.5507 17.4215 8.7489V7.29711C17.4215 6.4953 18.0308 5.84532 18.7825 5.84532ZM15.7882 7.29711C15.7882 6.4953 15.1789 5.84532 14.4272 5.84532C13.6755 5.84532 13.0661 6.4953 13.0661 7.29711V8.7489C13.0661 9.5507 13.6755 10.2007 14.4272 10.2007C15.1789 10.2007 15.7882 9.5507 15.7882 8.7489V7.29711Z"/>
</mask>
<path fill-rule="evenodd" clip-rule="evenodd" d="M25.0434 7.29711C25.0434 6.4953 24.434 5.84532 23.6823 5.84532C22.9306 5.84532 22.3213 6.4953 22.3213 7.29711V8.7489C22.3213 9.5507 22.9306 10.2007 23.6823 10.2007C24.434 10.2007 25.0434 9.5507 25.0434 8.7489V7.29711ZM8.09826 11.834C7.68314 11.834 7.28502 11.9989 6.99149 12.2924C6.69796 12.5859 6.53305 12.984 6.53305 13.3992C6.53305 16.305 7.68739 19.0918 9.74213 21.1466C10.519 21.9235 11.4006 22.5716 12.3536 23.0773L8.32757 31.3454C7.9511 32.1185 8.25629 33.0587 9.00923 33.4452C9.76218 33.8318 10.6778 33.5184 11.0542 32.7453L12.2234 30.3443H22.5259C22.746 31.0592 23.1381 31.7168 23.6767 32.2554C24.5445 33.1233 25.7215 33.6108 26.9489 33.6108C28.1762 33.6108 29.3532 33.1233 30.2211 32.2554C31.0889 31.3876 31.5764 30.2105 31.5764 28.9832C31.5764 27.7559 31.0889 26.5789 30.2211 25.711C29.3532 24.8432 28.1762 24.3556 26.9489 24.3556C26.8332 24.3556 26.718 24.36 26.6034 24.3686L25.9162 22.9942C26.75 22.5345 27.5271 21.9645 28.2245 21.2932C30.2679 19.3265 31.469 16.6441 31.5753 13.81C31.5761 13.7905 31.5764 13.7709 31.5764 13.7513V13.3992C31.5764 12.5347 30.8757 11.834 30.0112 11.834H8.09826ZM22.5259 27.6222H13.5489L15.2519 24.1248C15.9825 24.2772 16.7319 24.3556 17.4895 24.3556H20.62C21.3689 24.3561 22.1101 24.2799 22.8332 24.1312L23.6411 25.747C23.1208 26.2788 22.7411 26.9232 22.5259 27.6222ZM11.9557 18.933C10.8626 17.8399 10.1262 16.4567 9.82156 14.9644H10.0102H28.2945C27.9794 16.508 27.2031 17.9314 26.0537 19.0377C24.5942 20.4425 22.6457 21.2266 20.62 21.2252H17.4895C17.3495 21.2252 17.2098 21.2215 17.0707 21.214C15.1477 21.111 13.3243 20.3017 11.9557 18.933ZM25.8581 27.8925C26.1474 27.6032 26.5398 27.4407 26.9489 27.4407C27.358 27.4407 27.7503 27.6032 28.0396 27.8925C28.3289 28.1818 28.4914 28.5741 28.4914 28.9832C28.4914 29.3923 28.3289 29.7847 28.0396 30.074C27.7503 30.3632 27.358 30.5258 26.9489 30.5258C26.5398 30.5258 26.1474 30.3632 25.8581 30.074C25.5688 29.7847 25.4063 29.3923 25.4063 28.9832C25.4063 28.5741 25.5688 28.1818 25.8581 27.8925ZM18.7825 5.84532C19.5342 5.84532 20.1436 6.4953 20.1436 7.29711V8.7489C20.1436 9.5507 19.5342 10.2007 18.7825 10.2007C18.0308 10.2007 17.4215 9.5507 17.4215 8.7489V7.29711C17.4215 6.4953 18.0308 5.84532 18.7825 5.84532ZM15.7882 7.29711C15.7882 6.4953 15.1789 5.84532 14.4272 5.84532C13.6755 5.84532 13.0661 6.4953 13.0661 7.29711V8.7489C13.0661 9.5507 13.6755 10.2007 14.4272 10.2007C15.1789 10.2007 15.7882 9.5507 15.7882 8.7489V7.29711Z" fill="#003C3E"/>
<path d="M17.0044 21.2889C17.0458 21.3255 17.109 21.3217 17.1456 21.2803C17.1822 21.2389 17.1783 21.1757 17.137 21.1391L17.0044 21.2889ZM10.0764 14.8895C10.0351 14.8529 9.97189 14.8567 9.93529 14.8981C9.89868 14.9395 9.90253 15.0027 9.94389 15.0393L10.0764 14.8895ZM17.137 21.1391L10.0764 14.8895L9.94389 15.0393L17.0044 21.2889L17.137 21.1391ZM6.99149 12.2924L7.13291 12.4338L7.13291 12.4338L6.99149 12.2924ZM9.74213 21.1466L9.88355 21.0051L9.88355 21.0051L9.74213 21.1466ZM12.3536 23.0773L12.5334 23.1649C12.5806 23.068 12.5425 22.9512 12.4474 22.9007L12.3536 23.0773ZM8.32757 31.3454L8.50738 31.433L8.50738 31.433L8.32757 31.3454ZM9.00923 33.4452L8.91789 33.6232L8.91789 33.6232L9.00923 33.4452ZM11.0542 32.7453L10.8744 32.6577L10.8744 32.6577L11.0542 32.7453ZM12.2234 30.3443V30.1443C12.1469 30.1443 12.0771 30.1879 12.0436 30.2567L12.2234 30.3443ZM22.5259 30.3443L22.7171 30.2855C22.6913 30.2015 22.6137 30.1443 22.5259 30.1443V30.3443ZM30.2211 32.2554L30.0796 32.114L30.0796 32.114L30.2211 32.2554ZM26.6034 24.3686L26.4245 24.458C26.4608 24.5306 26.5374 24.574 26.6183 24.568L26.6034 24.3686ZM25.9162 22.9942L25.8197 22.819C25.7257 22.8708 25.6894 22.9876 25.7374 23.0836L25.9162 22.9942ZM28.2245 21.2932L28.3632 21.4373L28.3632 21.4373L28.2245 21.2932ZM31.5753 13.81L31.3755 13.8025L31.3755 13.8025L31.5753 13.81ZM13.5489 27.6222L13.3691 27.5346C13.3389 27.5966 13.3427 27.6698 13.3793 27.7282C13.4159 27.7867 13.4799 27.8222 13.5489 27.8222V27.6222ZM22.5259 27.6222V27.8222C22.6137 27.8222 22.6913 27.7649 22.7171 27.681L22.5259 27.6222ZM15.2519 24.1248L15.2928 23.929C15.2031 23.9103 15.1122 23.9549 15.0721 24.0372L15.2519 24.1248ZM20.62 24.3556L20.6201 24.1556H20.62V24.3556ZM22.8332 24.1312L23.0121 24.0417C22.9715 23.9607 22.8816 23.917 22.7929 23.9353L22.8332 24.1312ZM23.6411 25.747L23.784 25.8869C23.8437 25.8259 23.8581 25.7339 23.8199 25.6576L23.6411 25.747ZM9.82156 14.9644V14.7644C9.7615 14.7644 9.70462 14.7914 9.66664 14.8379C9.62866 14.8844 9.61359 14.9455 9.6256 15.0044L9.82156 14.9644ZM11.9557 18.933L12.0971 18.7916L12.0971 18.7916L11.9557 18.933ZM28.2945 14.9644L28.4905 15.0044C28.5025 14.9455 28.4874 14.8844 28.4495 14.8379C28.4115 14.7914 28.3546 14.7644 28.2945 14.7644V14.9644ZM26.0537 19.0377L25.915 18.8936L25.915 18.8936L26.0537 19.0377ZM20.62 21.2252L20.6201 21.0252H20.62V21.2252ZM17.0707 21.214L17.06 21.4137L17.06 21.4137L17.0707 21.214ZM23.6823 6.04532C24.3116 6.04532 24.8434 6.59341 24.8434 7.29711H25.2434C25.2434 6.3972 24.5564 5.64532 23.6823 5.64532V6.04532ZM22.5213 7.29711C22.5213 6.59341 23.0531 6.04532 23.6823 6.04532V5.64532C22.8082 5.64532 22.1213 6.3972 22.1213 7.29711H22.5213ZM22.5213 8.7489V7.29711H22.1213V8.7489H22.5213ZM23.6823 10.0007C23.0531 10.0007 22.5213 9.4526 22.5213 8.7489H22.1213C22.1213 9.6488 22.8082 10.4007 23.6823 10.4007V10.0007ZM24.8434 8.7489C24.8434 9.4526 24.3116 10.0007 23.6823 10.0007V10.4007C24.5564 10.4007 25.2434 9.6488 25.2434 8.7489H24.8434ZM24.8434 7.29711V8.7489H25.2434V7.29711H24.8434ZM7.13291 12.4338C7.38894 12.1778 7.73619 12.034 8.09826 12.034V11.634C7.6301 11.634 7.18111 11.8199 6.85007 12.151L7.13291 12.4338ZM6.73305 13.3992C6.73305 13.0371 6.87688 12.6898 7.13291 12.4338L6.85007 12.151C6.51903 12.482 6.33305 12.931 6.33305 13.3992H6.73305ZM9.88355 21.0051C7.86632 18.9879 6.73305 16.252 6.73305 13.3992H6.33305C6.33305 16.358 7.50846 19.1957 9.60071 21.288L9.88355 21.0051ZM12.4474 22.9007C11.5117 22.4042 10.6463 21.7679 9.88355 21.0051L9.60071 21.288C10.3918 22.079 11.2894 22.7391 12.2599 23.254L12.4474 22.9007ZM8.50738 31.433L12.5334 23.1649L12.1738 22.9898L8.14775 31.2578L8.50738 31.433ZM9.10058 33.2673C8.447 32.9318 8.17727 32.1109 8.50738 31.433L8.14775 31.2578C7.72492 32.1262 8.06558 33.1856 8.91789 33.6232L9.10058 33.2673ZM10.8744 32.6577C10.5457 33.3329 9.75105 33.6013 9.10058 33.2673L8.91789 33.6232C9.77331 34.0623 10.8098 33.704 11.234 32.8328L10.8744 32.6577ZM12.0436 30.2567L10.8744 32.6577L11.234 32.8328L12.4032 30.4318L12.0436 30.2567ZM22.5259 30.1443H12.2234V30.5443H22.5259V30.1443ZM23.8181 32.114C23.3028 31.5987 22.9276 30.9695 22.7171 30.2855L22.3348 30.4031C22.5643 31.1489 22.9734 31.835 23.5352 32.3968L23.8181 32.114ZM26.9489 33.4108C25.7746 33.4108 24.6484 32.9443 23.8181 32.114L23.5352 32.3968C24.4406 33.3022 25.6685 33.8108 26.9489 33.8108V33.4108ZM30.0796 32.114C29.2493 32.9443 28.1231 33.4108 26.9489 33.4108V33.8108C28.2292 33.8108 29.4571 33.3022 30.3625 32.3968L30.0796 32.114ZM31.3764 28.9832C31.3764 30.1575 30.91 31.2837 30.0796 32.114L30.3625 32.3968C31.2678 31.4915 31.7764 30.2636 31.7764 28.9832H31.3764ZM30.0796 25.8525C30.91 26.6828 31.3764 27.809 31.3764 28.9832H31.7764C31.7764 27.7029 31.2678 26.475 30.3625 25.5696L30.0796 25.8525ZM26.9489 24.5556C28.1231 24.5556 29.2493 25.0221 30.0796 25.8525L30.3625 25.5696C29.4571 24.6643 28.2292 24.1556 26.9489 24.1556V24.5556ZM26.6183 24.568C26.7279 24.5598 26.8382 24.5556 26.9489 24.5556V24.1556C26.8282 24.1556 26.708 24.1602 26.5885 24.1691L26.6183 24.568ZM25.7374 23.0836L26.4245 24.458L26.7823 24.2791L26.0951 22.9047L25.7374 23.0836ZM28.0858 21.1491C27.4011 21.8081 26.6383 22.3678 25.8197 22.819L26.0128 23.1693C26.8618 22.7013 27.6531 22.1208 28.3632 21.4373L28.0858 21.1491ZM31.3755 13.8025C31.2711 16.5848 30.0919 19.2183 28.0858 21.1491L28.3632 21.4373C30.4439 19.4347 31.6669 16.7033 31.7752 13.8175L31.3755 13.8025ZM31.3764 13.7513C31.3764 13.7684 31.3761 13.7855 31.3755 13.8025L31.7752 13.8175C31.776 13.7955 31.7764 13.7734 31.7764 13.7513H31.3764ZM31.3764 13.3992V13.7513H31.7764V13.3992H31.3764ZM30.0112 12.034C30.7652 12.034 31.3764 12.6452 31.3764 13.3992H31.7764C31.7764 12.4243 30.9861 11.634 30.0112 11.634V12.034ZM8.09826 12.034H30.0112V11.634H8.09826V12.034ZM13.5489 27.8222H22.5259V27.4222H13.5489V27.8222ZM15.0721 24.0372L13.3691 27.5346L13.7287 27.7097L15.4317 24.2123L15.0721 24.0372ZM17.4895 24.1556C16.7458 24.1556 16.01 24.0786 15.2928 23.929L15.2111 24.3205C15.9549 24.4758 16.7181 24.5556 17.4895 24.5556V24.1556ZM20.62 24.1556H17.4895V24.5556H20.62V24.1556ZM22.7929 23.9353C22.083 24.0812 21.3553 24.1561 20.6201 24.1556L20.6198 24.5556C21.3824 24.5561 22.1372 24.4785 22.8734 24.3271L22.7929 23.9353ZM23.8199 25.6576L23.0121 24.0417L22.6543 24.2206L23.4622 25.8365L23.8199 25.6576ZM22.7171 27.681C22.9229 27.0122 23.2862 26.3957 23.784 25.8869L23.4981 25.6072C22.9553 26.1619 22.5592 26.8341 22.3348 27.5634L22.7171 27.681ZM9.6256 15.0044C9.93803 16.5348 10.6932 17.9534 11.8143 19.0744L12.0971 18.7916C11.0319 17.7264 10.3144 16.3786 10.0175 14.9244L9.6256 15.0044ZM10.0102 14.7644H9.82156V15.1644H10.0102V14.7644ZM28.2945 14.7644H10.0102V15.1644H28.2945V14.7644ZM26.1924 19.1818C27.3712 18.0472 28.1673 16.5875 28.4905 15.0044L28.0986 14.9244C27.7915 16.4286 27.035 17.8156 25.915 18.8936L26.1924 19.1818ZM20.6198 21.4252C22.6973 21.4267 24.6955 20.6225 26.1924 19.1818L25.915 18.8936C24.4928 20.2625 22.5941 21.0266 20.6201 21.0252L20.6198 21.4252ZM17.4895 21.4252H20.62V21.0252H17.4895V21.4252ZM17.06 21.4137C17.2027 21.4214 17.3459 21.4252 17.4895 21.4252V21.0252C17.3531 21.0252 17.217 21.0216 17.0814 21.0143L17.06 21.4137ZM11.8143 19.0744C13.2179 20.4781 15.0879 21.3081 17.06 21.4137L17.0814 21.0143C15.2075 20.914 13.4308 20.1253 12.0971 18.7916L11.8143 19.0744ZM26.9489 27.2407C26.4867 27.2407 26.0435 27.4243 25.7167 27.7511L25.9995 28.0339C26.2513 27.7821 26.5928 27.6407 26.9489 27.6407V27.2407ZM28.181 27.7511C27.8542 27.4243 27.411 27.2407 26.9489 27.2407V27.6407C27.3049 27.6407 27.6464 27.7821 27.8982 28.0339L28.181 27.7511ZM28.6914 28.9832C28.6914 28.5211 28.5078 28.0779 28.181 27.7511L27.8982 28.0339C28.1499 28.2857 28.2914 28.6272 28.2914 28.9832H28.6914ZM28.181 30.2154C28.5078 29.8886 28.6914 29.4454 28.6914 28.9832H28.2914C28.2914 29.3393 28.1499 29.6808 27.8982 29.9325L28.181 30.2154ZM26.9489 30.7258C27.411 30.7258 27.8542 30.5422 28.181 30.2154L27.8982 29.9325C27.6464 30.1843 27.3049 30.3258 26.9489 30.3258V30.7258ZM25.7167 30.2154C26.0435 30.5422 26.4867 30.7258 26.9489 30.7258V30.3258C26.5928 30.3258 26.2513 30.1843 25.9995 29.9325L25.7167 30.2154ZM25.2063 28.9832C25.2063 29.4454 25.3899 29.8886 25.7167 30.2154L25.9995 29.9325C25.7478 29.6808 25.6063 29.3393 25.6063 28.9832H25.2063ZM25.7167 27.7511C25.3899 28.0779 25.2063 28.5211 25.2063 28.9832H25.6063C25.6063 28.6272 25.7478 28.2857 25.9995 28.0339L25.7167 27.7511ZM20.3436 7.29711C20.3436 6.3972 19.6566 5.64532 18.7825 5.64532V6.04532C19.4118 6.04532 19.9436 6.59341 19.9436 7.29711H20.3436ZM20.3436 8.7489V7.29711H19.9436V8.7489H20.3436ZM18.7825 10.4007C19.6566 10.4007 20.3436 9.6488 20.3436 8.7489H19.9436C19.9436 9.4526 19.4118 10.0007 18.7825 10.0007V10.4007ZM17.2215 8.7489C17.2215 9.6488 17.9084 10.4007 18.7825 10.4007V10.0007C18.1533 10.0007 17.6215 9.4526 17.6215 8.7489H17.2215ZM17.2215 7.29711V8.7489H17.6215V7.29711H17.2215ZM18.7825 5.64532C17.9084 5.64532 17.2215 6.3972 17.2215 7.29711H17.6215C17.6215 6.59341 18.1533 6.04532 18.7825 6.04532V5.64532ZM14.4272 6.04532C15.0564 6.04532 15.5882 6.59341 15.5882 7.29711H15.9882C15.9882 6.3972 15.3013 5.64532 14.4272 5.64532V6.04532ZM13.2661 7.29711C13.2661 6.59341 13.7979 6.04532 14.4272 6.04532V5.64532C13.5531 5.64532 12.8661 6.3972 12.8661 7.29711H13.2661ZM13.2661 8.7489V7.29711H12.8661V8.7489H13.2661ZM14.4272 10.0007C13.7979 10.0007 13.2661 9.4526 13.2661 8.7489H12.8661C12.8661 9.6488 13.5531 10.4007 14.4272 10.4007V10.0007ZM15.5882 8.7489C15.5882 9.4526 15.0564 10.0007 14.4272 10.0007V10.4007C15.3013 10.4007 15.9882 9.6488 15.9882 8.7489H15.5882ZM15.5882 7.29711V8.7489H15.9882V7.29711H15.5882Z" fill="white" mask="url(#path-1-inside-1_2024_610)"/>
</g>
</g>
<defs>
<clipPath id="clip0_2024_610">
<rect width="38" height="38.1095" fill="white" transform="translate(0 0.945312)"/>
</clipPath>
</defs>
</svg>
