<svg width="56" height="56" viewBox="0 0 56 56" fill="none" xmlns="http://www.w3.org/2000/svg">
<g clip-path="url(#clip0_2043_31718)">
<path fill-rule="evenodd" clip-rule="evenodd" d="M14 14.0002C13.3812 14.0002 12.7877 14.246 12.3501 14.6836C11.9125 15.1212 11.6667 15.7147 11.6667 16.3335V44.3335C11.6667 44.9523 11.9125 45.5458 12.3501 45.9834C12.7877 46.421 13.3812 46.6668 14 46.6668H42C42.6188 46.6668 43.2123 46.421 43.6499 45.9834C44.0875 45.5458 44.3333 44.9523 44.3333 44.3335V16.3335C44.3333 15.7147 44.0875 15.1212 43.6499 14.6836C43.2123 14.246 42.6188 14.0002 42 14.0002H14ZM9.05025 11.3837C10.363 10.071 12.1435 9.3335 14 9.3335H42C43.8565 9.3335 45.637 10.071 46.9497 11.3837C48.2625 12.6965 49 14.477 49 16.3335V44.3335C49 46.19 48.2625 47.9705 46.9497 49.2832C45.637 50.596 43.8565 51.3335 42 51.3335H14C12.1435 51.3335 10.363 50.596 9.05025 49.2832C7.7375 47.9705 7 46.19 7 44.3335V16.3335C7 14.477 7.7375 12.6965 9.05025 11.3837Z" fill="#CCCCCC"/>
<path fill-rule="evenodd" clip-rule="evenodd" d="M37.3333 4.6665C38.622 4.6665 39.6667 5.71117 39.6667 6.99984V16.3332C39.6667 17.6218 38.622 18.6665 37.3333 18.6665C36.0447 18.6665 35 17.6218 35 16.3332V6.99984C35 5.71117 36.0447 4.6665 37.3333 4.6665Z" fill="#CCCCCC"/>
<path fill-rule="evenodd" clip-rule="evenodd" d="M18.6666 4.6665C19.9553 4.6665 21 5.71117 21 6.99984V16.3332C21 17.6218 19.9553 18.6665 18.6666 18.6665C17.378 18.6665 16.3333 17.6218 16.3333 16.3332V6.99984C16.3333 5.71117 17.378 4.6665 18.6666 4.6665Z" fill="#CCCCCC"/>
<path fill-rule="evenodd" clip-rule="evenodd" d="M7 25.6668C7 24.3782 8.04467 23.3335 9.33333 23.3335H46.6667C47.9553 23.3335 49 24.3782 49 25.6668C49 26.9555 47.9553 28.0002 46.6667 28.0002H9.33333C8.04467 28.0002 7 26.9555 7 25.6668Z" fill="#CCCCCC"/>
</g>
<defs>
<clipPath id="clip0_2043_31718">
<rect width="56" height="56" fill="white"/>
</clipPath>
</defs>
</svg>
