<svg width="44" height="45" viewBox="0 0 44 45" fill="none" xmlns="http://www.w3.org/2000/svg">
<circle cx="22" cy="22.5" r="21.5" stroke="#78B548"/>
<g clip-path="url(#clip0_2042_31640)">
<path fill-rule="evenodd" clip-rule="evenodd" d="M14.2929 17.7929C14.4804 17.6054 14.7348 17.5 15 17.5H29C29.5523 17.5 30 17.9477 30 18.5V18.725C30 18.7375 29.9998 18.75 29.9993 18.7625C29.9313 20.5731 29.164 22.2869 27.8585 23.5434C26.5532 24.7998 24.8117 25.5011 23 25.5C22.9998 25.5 23.0002 25.5 23 25.5M23 25.5H21C19.1435 25.5 17.363 24.7625 16.0503 23.4497C14.7375 22.137 14 20.3565 14 18.5C14 18.2348 14.1054 17.9804 14.2929 17.7929M16.101 19.5C16.2956 20.4534 16.7661 21.3372 17.4645 22.0355C18.4021 22.9732 19.6739 23.5 21 23.5H23C24.2942 23.5009 25.5391 22.9999 26.4716 22.1024C27.2059 21.3956 27.7019 20.4862 27.9032 19.5H16.101Z" fill="#78B548"/>
<path fill-rule="evenodd" clip-rule="evenodd" d="M27 27.5C26.7348 27.5 26.4804 27.6054 26.2929 27.7929C26.1054 27.9804 26 28.2348 26 28.5C26 28.7652 26.1054 29.0196 26.2929 29.2071C26.4804 29.3946 26.7348 29.5 27 29.5C27.2652 29.5 27.5196 29.3946 27.7071 29.2071C27.8946 29.0196 28 28.7652 28 28.5C28 28.2348 27.8946 27.9804 27.7071 27.7929C27.5196 27.6054 27.2652 27.5 27 27.5ZM24.8787 26.3787C25.4413 25.8161 26.2043 25.5 27 25.5C27.7957 25.5 28.5587 25.8161 29.1213 26.3787C29.6839 26.9413 30 27.7043 30 28.5C30 29.2957 29.6839 30.0587 29.1213 30.6213C28.5587 31.1839 27.7957 31.5 27 31.5C26.2043 31.5 25.4413 31.1839 24.8787 30.6213C24.3161 30.0587 24 29.2957 24 28.5C24 27.7043 24.3161 26.9413 24.8787 26.3787Z" fill="#78B548"/>
<path fill-rule="evenodd" clip-rule="evenodd" d="M24.5528 23.6058C25.0468 23.3588 25.6474 23.559 25.8944 24.053L26.8944 26.053C27.1414 26.547 26.9412 27.1477 26.4472 27.3946C25.9532 27.6416 25.3526 27.4414 25.1056 26.9474L24.1056 24.9474C23.8586 24.4535 24.0588 23.8528 24.5528 23.6058Z" fill="#78B548"/>
<path fill-rule="evenodd" clip-rule="evenodd" d="M19.4472 23.6058C19.9412 23.8528 20.1414 24.4535 19.8944 24.9474L16.8944 30.9474C16.6474 31.4414 16.0468 31.6416 15.5528 31.3946C15.0588 31.1477 14.8586 30.547 15.1056 30.053L18.1056 24.053C18.3526 23.559 18.9532 23.3588 19.4472 23.6058Z" fill="#78B548"/>
<path fill-rule="evenodd" clip-rule="evenodd" d="M16 28.5C16 27.9477 16.4477 27.5 17 27.5H25C25.5523 27.5 26 27.9477 26 28.5C26 29.0523 25.5523 29.5 25 29.5H17C16.4477 29.5 16 29.0523 16 28.5Z" fill="#78B548"/>
<path fill-rule="evenodd" clip-rule="evenodd" d="M25 13.5C25.5523 13.5 26 13.9477 26 14.5V15.5C26 16.0523 25.5523 16.5 25 16.5C24.4477 16.5 24 16.0523 24 15.5V14.5C24 13.9477 24.4477 13.5 25 13.5Z" fill="#78B548"/>
<path fill-rule="evenodd" clip-rule="evenodd" d="M22 13.5C22.5523 13.5 23 13.9477 23 14.5V15.5C23 16.0523 22.5523 16.5 22 16.5C21.4477 16.5 21 16.0523 21 15.5V14.5C21 13.9477 21.4477 13.5 22 13.5Z" fill="#78B548"/>
<path fill-rule="evenodd" clip-rule="evenodd" d="M19 13.5C19.5523 13.5 20 13.9477 20 14.5V15.5C20 16.0523 19.5523 16.5 19 16.5C18.4477 16.5 18 16.0523 18 15.5V14.5C18 13.9477 18.4477 13.5 19 13.5Z" fill="#78B548"/>
</g>
<defs>
<clipPath id="clip0_2042_31640">
<rect width="24" height="24" fill="white" transform="translate(10 10.5)"/>
</clipPath>
</defs>
</svg>
