<svg width="29" height="18" viewBox="0 0 29 18" fill="none" xmlns="http://www.w3.org/2000/svg">
<g opacity="0.5">
<path d="M9 5C9.53043 5 10.0391 5.21071 10.4142 5.58579C10.7893 5.96086 11 6.46957 11 7C11 7.53043 10.7893 8.03914 10.4142 8.41421C10.0391 8.78929 9.53043 9 9 9C8.46957 9 7.96086 8.78929 7.58579 8.41421C7.21071 8.03914 7 7.53043 7 7C7 6.46957 7.21071 5.96086 7.58579 5.58579C7.96086 5.21071 8.46957 5 9 5ZM9 6C8.73478 6 8.48043 6.10536 8.29289 6.29289C8.10536 6.48043 8 6.73478 8 7C8 7.26522 8.10536 7.51957 8.29289 7.70711C8.48043 7.89464 8.73478 8 9 8C9.26522 8 9.51957 7.89464 9.70711 7.70711C9.89464 7.51957 10 7.26522 10 7C10 6.73478 9.89464 6.48043 9.70711 6.29289C9.51957 6.10536 9.26522 6 9 6ZM9 9.5C10.335 9.5 13 10.165 13 11.5V13H5V11.5C5 10.165 7.665 9.5 9 9.5ZM9 10.45C7.515 10.45 5.95 11.18 5.95 11.5V12.05H12.05V11.5C12.05 11.18 10.485 10.45 9 10.45Z" fill="#003C3E"/>
<path d="M16.5 6H24" stroke="#003C3E" stroke-linecap="round"/>
<path d="M16.5 9H24" stroke="#003C3E" stroke-linecap="round"/>
<path d="M16.5 12H24" stroke="#003C3E" stroke-linecap="round"/>
<rect x="0.5" y="0.5" width="28" height="17" rx="2.5" stroke="#003C3E"/>
</g>
</svg>
